<svg width="280" height="280" viewBox="0 0 280 280" fill="none" xmlns="http://www.w3.org/2000/svg">
<path d="M280 0H0V280H280V0Z" fill="white"/>
<path d="M227.383 74.7449C181.668 17.1736 73.4339 13.9555 41.6128 59.6227C24.0754 84.7789 31.4053 122.389 35.0188 140.946C41.6739 175.094 58.08 197.08 61.6603 201.743C70.3547 213.057 91.4716 240.545 123.237 246.827C177.517 257.563 245.247 202.903 248.999 141.242C251.162 105.686 231.336 79.7223 227.383 74.7449Z" fill="#F4F7FA"/>
<path d="M197.87 215.109C191.331 207.611 182.8 195.551 179.962 179.355C176.704 160.758 183.928 153.705 184.038 132.304C184.199 101.755 163.716 88.3411 171.862 75.5788C175.835 69.3554 184.643 65.6256 191.711 67.1962C211.88 71.6785 227.97 121.553 211.321 150.717C203.79 163.906 193.661 167.004 189.962 181.514C186.69 194.334 192.683 206.888 197.87 215.109Z" fill="url(#paint0_linear_1_2450)"/>
<g style="mix-blend-mode:soft-light">
<g style="mix-blend-mode:soft-light">
<path d="M186.572 193.985C185.952 189.91 185.683 185.789 185.768 181.667C185.966 172.233 188.039 166.221 190.663 158.61C192.368 153.665 194.3 148.06 196.055 140.458C199.337 126.238 200.166 121.382 199.753 114.312C198.935 100.311 193.654 89.6823 190.58 84.5925C186.224 77.3781 180.492 71.0904 173.711 66.0868L173.873 65.8672C180.683 70.8926 186.439 77.2075 190.814 84.4528C193.901 89.5638 199.204 100.238 200.026 114.297C200.441 121.402 199.61 126.271 196.321 140.521C194.563 148.137 192.629 153.749 190.922 158.7C188.305 166.289 186.239 172.285 186.041 181.675C185.956 185.78 186.224 189.886 186.842 193.946L186.572 193.985Z" fill="white"/>
</g>
<g style="mix-blend-mode:soft-light">
<path d="M198.514 104.735L198.423 104.53C194.474 95.637 186.294 92.2589 180.128 90.991C173.431 89.6136 167.593 90.3562 167.534 90.3638L167.499 90.0936C167.558 90.0861 173.434 89.3389 180.178 90.7215C186.362 91.9917 194.55 95.3646 198.581 104.209C199.248 103.315 202.183 99.1525 203.858 93.1147C205.6 86.8408 206.297 77.2 199.731 66.9004L199.961 66.7532C206.584 77.1419 205.878 86.8679 204.119 93.1985C202.213 100.054 198.692 104.519 198.657 104.56L198.514 104.735Z" fill="white"/>
</g>
<g style="mix-blend-mode:soft-light">
<path d="M197.283 136.65C197.165 136.65 197.1 136.65 197.094 136.65H196.98L196.964 136.536C195.55 126.762 190.805 121.126 187.077 118.121C183.033 114.861 179.272 113.901 179.235 113.894L179.301 113.63C179.338 113.639 183.15 114.611 187.238 117.903C190.996 120.928 195.771 126.587 197.219 136.385H197.256C198.962 136.385 214.565 136 222.114 122.479L222.353 122.611C218.153 130.133 211.51 133.555 206.676 135.094C202.057 136.559 198.166 136.65 197.283 136.65Z" fill="white"/>
</g>
<g style="mix-blend-mode:soft-light">
<path d="M196.067 157.486C193.143 157.486 191.393 156.882 191.371 156.876L191.279 156.844V156.746C191.399 146.159 179.768 133.834 179.65 133.711L179.848 133.522C179.965 133.646 191.601 145.975 191.553 156.648C192.085 156.811 194.888 157.575 199.078 157.005C203.369 156.422 210.035 154.282 217.417 147.394L217.604 147.594C210.159 154.537 203.429 156.693 199.094 157.278C198.091 157.415 197.08 157.485 196.067 157.486Z" fill="white"/>
</g>
</g>
<path d="M183.24 205.208C179.799 199.769 175.379 190.868 176.684 180.689C178.961 162.925 196.099 161.249 204.13 139.853C210.607 122.596 202.876 114.584 212.364 100.923C213.948 98.6363 222.216 86.2544 232.653 87.1918C238.534 87.7201 242.495 92.2363 243.238 93.0839C254.475 105.898 249.166 135.65 233.897 154.688C225.124 165.627 220.61 165.175 203.633 180.786C195.8 188.003 188.944 196.213 183.24 205.208V205.208Z" fill="url(#paint1_linear_1_2450)"/>
<g style="mix-blend-mode:soft-light">
<g style="mix-blend-mode:soft-light">
<path d="M184.259 213.012C181.255 197.796 182.803 186.064 188.862 178.144C191.828 174.265 194.791 172.597 197.926 170.831C201.294 168.934 204.777 166.973 208.37 162.011C211.861 157.19 212.388 153.746 213.054 149.386C213.654 145.461 214.401 140.575 217.573 133.146C220.355 126.635 222.877 123.072 225.103 119.928C227.512 116.525 229.415 113.836 230.746 108.661C232.919 100.208 232.001 90.9351 228.018 81.1004L228.271 80.9977C232.277 90.8845 233.198 100.218 231.01 108.73C229.667 113.952 227.751 116.659 225.326 120.085C223.108 123.218 220.594 126.77 217.825 133.254C214.666 140.651 213.922 145.517 213.324 149.427C212.652 153.823 212.121 157.297 208.591 162.171C204.963 167.181 201.453 169.158 198.06 171.069C194.949 172.82 192.011 174.475 189.079 178.31C183.071 186.168 181.54 197.826 184.529 212.962L184.259 213.012Z" fill="white"/>
</g>
<g style="mix-blend-mode:soft-light">
<path d="M224.125 121.57L224.11 121.388C224.092 121.166 222.16 99.1202 211.63 94.1293L211.747 93.8825C221.903 98.6968 224.155 119.038 224.365 121.184C235.1 116.972 241.295 109.613 244.605 104.166C248.21 98.2357 249.265 93.2394 249.275 93.1896L249.542 93.2447C249.533 93.2945 248.468 98.3368 244.838 104.308C241.489 109.818 235.206 117.276 224.295 121.504L224.125 121.57Z" fill="white"/>
</g>
<g style="mix-blend-mode:soft-light">
<path d="M214.977 141.255H214.868H214.751L214.735 141.138C213.96 135.239 211.249 128.817 209.111 124.469C206.794 119.754 204.634 116.393 204.612 116.362L204.838 116.212C204.859 116.246 207.027 119.618 209.353 124.346C211.485 128.684 214.183 135.079 214.987 140.982C215.856 140.982 221.472 140.883 228.58 138.65C235.688 136.417 245.771 131.538 253.496 120.954L253.717 121.115C245.943 131.762 235.797 136.671 228.652 138.914C221.483 141.166 215.816 141.255 214.977 141.255Z" fill="white"/>
</g>
<g style="mix-blend-mode:soft-light">
<path d="M208.841 169.993C203.936 169.993 201.027 169.331 200.962 169.314L200.822 169.281L200.863 169.143C204.574 156.528 195.034 142.307 194.937 142.164L195.163 142.013C195.26 142.156 204.804 156.377 201.166 169.081C202.732 169.405 217.149 172.032 235.851 163.64L235.962 163.889C224.807 168.892 215.164 169.993 208.841 169.993Z" fill="white"/>
</g>
</g>
<path d="M180.935 200.325C184.292 194.801 188.414 189.779 193.177 185.409C204.004 175.506 210.967 175.701 214.083 168.036C217.306 160.101 211.366 156.141 215.418 147.091C215.758 146.329 220.179 136.784 227.695 136.463C232.953 136.236 236.903 140.649 238.756 142.717C245.949 150.748 250.131 165.852 243.097 177.15C236.429 187.861 223.051 189.759 218.795 190.335C211.324 191.345 208.632 189.405 201.124 190.637C191.986 192.131 185.171 196.768 180.935 200.325Z" fill="url(#paint2_linear_1_2450)"/>
<path d="M103.794 227.817C107.235 222.379 111.654 213.478 110.35 203.298C108.073 185.535 90.9352 183.859 82.9043 162.463C76.4273 145.206 84.1586 137.194 74.6711 123.533C73.0862 121.246 64.819 108.864 54.3813 109.802C48.4998 110.33 44.5398 114.846 43.7964 115.694C32.5587 128.508 37.8681 158.26 53.1368 177.298C61.9104 188.237 66.4243 187.784 83.4009 203.395C91.2339 210.613 98.0897 218.823 103.794 227.817V227.817Z" fill="url(#paint3_linear_1_2450)"/>
<g style="mix-blend-mode:soft-light">
<g style="mix-blend-mode:soft-light">
<path d="M102.775 235.622L102.507 235.57C105.496 220.434 103.965 208.777 97.9571 200.918C95.025 197.083 92.0869 195.428 88.9759 193.677C85.5797 191.766 82.0725 189.789 78.4446 184.779C74.9148 179.905 74.3835 176.431 73.7118 172.035C73.114 168.125 72.3699 163.259 69.2106 155.862C66.4416 149.378 63.9276 145.825 61.7103 142.693C59.2846 139.267 57.3691 136.561 56.0257 131.338C53.837 122.826 54.7593 113.496 58.7646 103.606L59.0174 103.708C55.0348 113.543 54.117 122.816 56.2899 131.269C57.6204 136.444 59.5238 139.133 61.9329 142.536C64.1586 145.68 66.6816 149.244 69.462 155.754C72.6318 163.183 73.3812 168.068 73.9812 171.994C74.6476 176.354 75.1744 179.798 78.6657 184.619C82.259 189.581 85.7412 191.542 89.1095 193.439C92.2454 195.205 95.2069 196.873 98.1729 200.752C104.231 208.679 105.78 220.408 102.775 235.622Z" fill="white"/>
</g>
<g style="mix-blend-mode:soft-light">
<path d="M62.9093 144.181L62.7388 144.115C51.8278 139.889 45.5448 132.43 42.1954 126.919C38.5659 120.948 37.5018 115.905 37.4912 115.856L37.7591 115.8C37.7689 115.85 38.8263 120.857 42.4346 126.787C45.7448 132.23 51.938 139.585 62.6686 143.795C62.8784 141.649 65.1305 121.305 75.2867 116.493L75.4037 116.74C64.8731 121.736 62.9433 143.777 62.9237 144L62.9093 144.181Z" fill="white"/>
</g>
<g style="mix-blend-mode:soft-light">
<path d="M72.0572 163.866C71.2187 163.866 65.5515 163.777 58.3772 161.526C51.2323 159.283 41.0836 154.374 33.3115 143.727L33.5327 143.566C41.2602 154.153 51.353 159.038 58.4587 161.266C65.5644 163.494 71.1712 163.593 72.0436 163.594C72.8444 157.691 75.5455 151.296 77.6776 146.958C80.0021 142.229 82.1712 138.857 82.1923 138.823L82.4187 138.974C82.3968 139.007 80.2353 142.37 77.9183 147.084C75.781 151.431 73.0708 157.852 72.2957 163.75L72.2806 163.866H72.1628L72.0572 163.866Z" fill="white"/>
</g>
<g style="mix-blend-mode:soft-light">
<path d="M78.1923 192.604C71.8693 192.604 62.2277 191.503 51.0723 186.498L51.184 186.249C69.8866 194.641 84.3017 192.015 85.8685 191.691C82.2315 178.986 91.7742 164.766 91.8715 164.623L92.0979 164.774C92.0013 164.917 82.4609 179.138 86.1719 191.752L86.2126 191.89L86.073 191.924C86.0066 191.942 83.0979 192.604 78.1923 192.604Z" fill="white"/>
</g>
</g>
<path d="M106.099 222.936C102.742 217.412 98.62 212.39 93.8564 208.02C83.0308 198.117 76.067 198.312 72.9508 190.647C69.7274 182.712 75.6677 178.752 71.6157 169.702C71.2753 168.941 66.8549 159.395 59.3387 159.074C54.0806 158.848 50.1311 163.26 48.2776 165.328C41.0874 173.359 36.9055 188.463 43.9387 199.761C50.6081 210.472 63.9847 212.371 68.2406 212.947C75.7123 213.956 78.4036 212.017 85.913 213.248C95.0474 214.742 101.862 219.379 106.099 222.936Z" fill="url(#paint4_linear_1_2450)"/>
<path d="M159.698 101.207C159.648 101.213 159.598 101.215 159.547 101.215C158.747 101.215 158.063 100.561 157.985 99.6882C156.604 84.1886 151.901 69.4595 144.732 58.2157C138.381 48.2535 130.82 42.3116 124.506 42.3116H124.485C101.475 42.3591 96.6613 99.1018 96.6153 99.6754C96.5398 100.604 95.7851 101.291 94.9156 101.212C94.0462 101.133 93.4107 100.315 93.4855 99.3863C93.6824 96.9206 98.6092 38.9908 124.479 38.9335H124.507C131.971 38.9335 140.287 45.2633 147.328 56.3056C154.793 68.0135 159.689 83.3063 161.114 99.3674C161.193 100.302 160.559 101.122 159.698 101.207Z" fill="url(#paint5_linear_1_2450)"/>
<path d="M63.6832 217.999L93.9737 234.471L112.327 173.98L82.0862 92.8828L73.5096 95.1409L60.5005 211.61C60.2062 214.247 61.4779 216.8 63.6832 217.999Z" fill="url(#paint6_linear_1_2450)"/>
<path style="mix-blend-mode:multiply" opacity="0.3" d="M112.327 173.979L82.086 92.8828L77.0294 94.2149C76.3282 105.043 76.6362 113.955 77.1131 120.442C79.1403 148.053 85.8724 155.737 82.6112 174.998C79.8995 191.015 73.9765 193.187 74.4943 203.964C75.0588 215.699 82.6792 225.527 91.7403 233.256L93.975 234.471L112.327 173.979Z" fill="url(#paint7_linear_1_2450)"/>
<path d="M82.0859 92.8828L196.155 99.0934L232.406 222.49L93.9735 234.471L82.0859 92.8828Z" fill="url(#paint8_linear_1_2450)"/>
<g style="mix-blend-mode:multiply" opacity="0.3">
<path style="mix-blend-mode:multiply" opacity="0.3" d="M196.155 99.0945L136.667 95.856C135.663 97.4341 134.333 100.007 134.086 103.285C132.622 122.682 172.652 128.966 176.24 152.78C178.97 170.909 162.169 191.829 147.177 201.149C131.383 210.968 120.681 205.995 109.998 216.897C105.305 221.687 102.447 227.676 100.747 233.885L232.406 222.489L196.155 99.0945Z" fill="url(#paint9_linear_1_2450)"/>
</g>
<path d="M117.073 103.992C116.361 103.992 115.715 103.463 115.545 102.689C115.224 101.22 107.804 66.4905 118.264 49.4475C121.262 44.5622 125.452 41.5803 130.717 40.5826C157.764 35.4641 174.415 97.8588 175.112 100.518C175.347 101.414 174.86 102.346 174.025 102.598C173.189 102.85 172.322 102.327 172.087 101.43C171.924 100.809 155.533 39.3034 131.262 43.9064C126.821 44.7479 123.427 47.1675 120.887 51.3026C111.161 67.1456 118.527 101.57 118.602 101.917C118.8 102.823 118.276 103.728 117.432 103.945C117.314 103.975 117.194 103.991 117.073 103.992V103.992Z" fill="url(#paint10_linear_1_2450)"/>
<path d="M117.085 108.961C119.509 108.961 121.475 106.85 121.475 104.246C121.475 101.642 119.509 99.5304 117.085 99.5304C114.66 99.5304 112.694 101.642 112.694 104.246C112.694 106.85 114.66 108.961 117.085 108.961Z" fill="url(#paint11_linear_1_2450)"/>
<path d="M174.339 108.524C176.764 108.524 178.73 106.413 178.73 103.809C178.73 101.205 176.764 99.0934 174.339 99.0934C171.915 99.0934 169.949 101.205 169.949 103.809C169.949 106.413 171.915 108.524 174.339 108.524Z" fill="url(#paint12_linear_1_2450)"/>
<path d="M204.884 158.471L169.47 123.937C169.117 123.584 168.666 123.346 168.175 123.252C167.685 123.159 167.178 123.215 166.72 123.413L147.82 131.665C146.228 132.36 145.679 134.486 146.711 135.967L177.555 180.129C178.408 181.35 180.011 181.619 181.17 180.733L204.641 162.851C206.005 161.811 206.125 159.68 204.884 158.471ZM164.388 136.075C163.194 136.936 161.313 136.176 160.187 134.376C159.061 132.576 159.114 130.419 160.307 129.557C161.5 128.695 163.381 129.456 164.508 131.256C165.634 133.056 165.585 135.216 164.388 136.075Z" fill="#D8DEE8"/>
<path d="M204.884 157.999L169.47 123.467C169.117 123.113 168.665 122.873 168.174 122.78C167.683 122.687 167.175 122.744 166.717 122.944L147.817 131.195C146.225 131.89 145.676 134.016 146.708 135.497L177.552 179.66C178.405 180.88 180.008 181.15 181.167 180.263L204.638 162.383C206.005 161.34 206.125 159.208 204.884 157.999ZM164.388 135.606C163.194 136.468 161.313 135.707 160.187 133.907C159.061 132.107 159.114 129.95 160.307 129.088C161.5 128.227 163.381 128.987 164.508 130.787C165.635 132.587 165.585 134.744 164.388 135.606V135.606Z" fill="#F4F7FA"/>
<path d="M157.027 127.125C156.97 127.125 156.915 127.109 156.867 127.077C156.82 127.045 156.782 127.001 156.76 126.948C155.533 124.056 153.879 121.558 151.842 119.523C146.257 113.947 139.055 113.071 132.085 112.223C125.15 111.379 118.6 110.583 114.687 105.063C113.697 103.666 112.158 101.139 112.984 99.9268C113.315 99.4392 113.976 99.2151 114.946 99.2619C114.984 99.2629 115.022 99.2716 115.058 99.2875C115.093 99.3035 115.125 99.3262 115.151 99.3546C115.177 99.3829 115.198 99.4162 115.211 99.4524C115.224 99.4887 115.23 99.5273 115.228 99.5659C115.227 99.6045 115.217 99.6424 115.2 99.6773C115.184 99.7122 115.16 99.7434 115.132 99.7692C115.103 99.7949 115.069 99.8146 115.032 99.8272C114.996 99.8397 114.957 99.8449 114.919 99.8423C114.399 99.8181 113.725 99.8687 113.464 100.254C113.025 100.899 113.69 102.655 115.161 104.728C118.925 110.036 125.35 110.818 132.155 111.646C139.221 112.506 146.529 113.395 152.252 119.112C154.341 121.2 156.038 123.76 157.294 126.722C157.323 126.792 157.323 126.87 157.295 126.941C157.267 127.011 157.212 127.068 157.143 127.099C157.106 127.115 157.067 127.124 157.027 127.125Z" fill="#26264F"/>
<path d="M160.052 132.969C159.995 132.969 159.939 132.952 159.891 132.92C159.843 132.888 159.806 132.843 159.784 132.79C159.762 132.737 159.756 132.678 159.768 132.622C159.779 132.565 159.807 132.514 159.848 132.473C159.872 132.448 162.297 129.995 162.285 126.722C162.278 124.711 161.363 122.797 159.568 121.033C155.758 117.291 145.649 112.958 136.731 109.136C131.288 106.802 126.146 104.598 122.768 102.698C122.003 102.267 121.193 101.857 120.361 101.482C120.324 101.467 120.291 101.445 120.262 101.418C120.234 101.39 120.212 101.357 120.197 101.32C120.182 101.284 120.175 101.244 120.176 101.205C120.177 101.165 120.185 101.127 120.202 101.091C120.218 101.055 120.242 101.022 120.271 100.996C120.3 100.969 120.334 100.949 120.372 100.936C120.409 100.923 120.449 100.918 120.488 100.921C120.527 100.924 120.566 100.935 120.601 100.953C121.448 101.336 122.273 101.753 123.054 102.192C126.403 104.079 131.531 106.275 136.959 108.602C145.925 112.445 156.086 116.802 159.978 120.619C161.892 122.498 162.864 124.552 162.87 126.726C162.88 130.245 160.369 132.78 160.261 132.886C160.234 132.913 160.201 132.934 160.165 132.949C160.129 132.963 160.091 132.97 160.052 132.969V132.969Z" fill="#26264F"/>
<path d="M204.885 157.999L169.47 123.467C169.117 123.113 168.666 122.873 168.175 122.78C167.683 122.687 167.175 122.744 166.717 122.944L165.034 123.678C165.53 125.505 166.236 127.269 167.139 128.933C172.37 138.525 180.95 138.112 182.935 144.769C184.693 150.669 178.798 153.834 178.021 162.113C177.633 166.249 178.519 171.752 183.266 178.664L204.636 162.382C206.005 161.34 206.126 159.209 204.885 157.999Z" fill="white"/>
<path d="M173.106 146.244C175.046 149.453 174.644 152.114 173.099 153.192C171.471 154.324 169.133 153.477 167.393 150.599C165.739 147.863 165.65 144.973 167.475 143.7C169.317 142.415 171.523 143.626 173.106 146.244ZM169.194 149.207C170.164 150.812 171.241 151.703 171.964 151.199C172.671 150.706 172.389 149.427 171.348 147.705C170.407 146.149 169.385 145.152 168.61 145.69C167.87 146.207 168.267 147.675 169.194 149.207ZM177.11 159.516L173.66 139.386L175.008 138.446L178.444 158.587L177.11 159.516ZM184.652 147.245C186.592 150.454 186.191 153.115 184.645 154.189C183.034 155.313 180.696 154.462 178.939 151.595C177.284 148.859 177.197 145.969 179.022 144.696C180.863 143.416 183.068 144.627 184.652 147.245ZM180.754 150.198C181.708 151.814 182.785 152.706 183.508 152.201C184.215 151.708 183.933 150.429 182.892 148.707C181.95 147.15 180.943 146.141 180.17 146.681C179.416 147.209 179.829 148.665 180.754 150.198Z" fill="#D8DEE8"/>
<path d="M177.852 170.653C177.605 170.65 177.364 170.581 177.153 170.453C176.941 170.326 176.768 170.144 176.651 169.927C176.248 169.215 176.46 168.288 177.122 167.855L194.179 156.735C194.842 156.304 195.706 156.531 196.108 157.242C196.51 157.954 196.3 158.882 195.636 159.314L178.58 170.434C178.364 170.576 178.111 170.652 177.852 170.653V170.653Z" fill="#D8DEE8"/>
<path d="M155.343 234.923C155.343 236.472 154.244 237.804 152.895 237.884L57.8498 243.689C56.0491 243.795 54.0166 242.272 54.0166 240.472V173.957C54.0166 172.157 56.0981 170.644 57.8989 170.719L152.895 174.785C154.244 174.841 155.343 176.153 155.343 177.702V234.923Z" fill="url(#paint13_linear_1_2450)"/>
<path d="M157.105 235.032C157.105 236.588 156 237.926 154.645 238.007L58.5848 243.698C58.1612 243.728 57.736 243.67 57.336 243.528C56.9359 243.386 56.5695 243.162 56.2599 242.872C55.9503 242.581 55.7042 242.23 55.537 241.839C55.3697 241.449 55.285 241.028 55.2882 240.604V173.771C55.2866 173.345 55.372 172.922 55.539 172.529C55.706 172.137 55.9511 171.782 56.2595 171.487C56.5679 171.192 56.9331 170.963 57.3329 170.814C57.7326 170.665 58.1586 170.598 58.5848 170.619L154.645 174.602C156.003 174.658 157.105 175.977 157.105 177.534V235.032Z" fill="url(#paint14_linear_1_2450)"/>
<path d="M157.105 219.363L55.2881 224.586V236.826L157.105 230.85V219.363Z" fill="url(#paint15_linear_1_2450)"/>
<g style="mix-blend-mode:multiply" opacity="0.15">
<path style="mix-blend-mode:multiply" opacity="0.15" d="M85.3381 192.721C85.2226 200.317 80.4724 204.264 75.1826 204.244C69.4203 204.222 64.8007 199.803 64.9101 192.545C65.015 185.647 69.3629 180.733 75.8173 181.215C82.0822 181.686 85.4339 186.521 85.3381 192.721ZM71.6573 192.575C71.5969 196.537 72.8935 199.417 75.4263 199.465C77.8648 199.51 79.0799 197.025 79.1426 192.868C79.1999 189.11 78.2369 186.145 75.5735 185.985C72.9811 185.831 71.7146 188.787 71.6573 192.575V192.575ZM77.0045 216.995L95.3592 183.764C95.531 183.452 95.7886 183.197 96.1012 183.028C96.4139 182.859 96.7685 182.783 97.123 182.81C97.4327 182.833 97.7316 182.933 97.9925 183.102C98.2533 183.27 98.4677 183.502 98.6161 183.774C98.7644 184.047 98.842 184.353 98.8417 184.664C98.8414 184.974 98.7632 185.28 98.6143 185.552L80.4633 218.774C80.3102 219.055 80.0873 219.291 79.8161 219.46C79.5449 219.629 79.2347 219.725 78.9154 219.739L78.7124 219.748C78.3827 219.763 78.0552 219.689 77.7634 219.535C77.4716 219.381 77.2261 219.152 77.0522 218.872C76.8782 218.592 76.7821 218.27 76.7737 217.94C76.7654 217.61 76.845 217.284 77.0045 216.995V216.995ZM108.41 207.63C108.302 214.665 104.226 218.514 99.6981 218.717C94.8309 218.93 90.9049 215.05 90.9539 208.364C91.0505 202.006 94.7547 197.28 100.264 197.428C105.628 197.568 108.497 201.887 108.41 207.63V207.63ZM96.7547 208.092C96.649 211.751 97.7524 214.356 99.9162 214.29C102 214.229 103.043 211.882 103.101 208.038C103.154 204.561 102.38 201.865 100.104 201.838C97.8415 201.811 96.8052 204.595 96.7547 208.092Z" fill="url(#paint16_linear_1_2450)"/>
</g>
<path d="M86.224 192.367C86.1093 199.963 81.3584 203.91 76.0693 203.89C70.3063 203.868 65.6867 199.45 65.7969 192.192C65.901 185.294 70.2497 180.379 76.7033 180.862C82.9682 181.333 86.3184 186.168 86.224 192.367ZM72.5433 192.221C72.4836 196.184 73.7803 199.064 76.3131 199.111C78.7508 199.156 79.9667 196.673 80.0293 192.516C80.0859 188.757 79.1236 185.792 76.4595 185.632C73.8693 185.477 72.6036 188.434 72.5433 192.221V192.221ZM77.8912 216.642L96.2452 183.411C96.4171 183.099 96.6748 182.844 96.9876 182.675C97.3003 182.506 97.6551 182.43 98.0097 182.456V182.456C98.3194 182.479 98.6183 182.58 98.8792 182.748C99.14 182.917 99.3543 183.148 99.5027 183.421C99.651 183.694 99.7286 184 99.7283 184.31C99.728 184.621 99.6499 184.927 99.501 185.199L81.3501 218.421C81.1967 218.702 80.9737 218.938 80.7026 219.106C80.4314 219.275 80.1213 219.372 79.8021 219.386L79.5991 219.395C79.2695 219.409 78.9419 219.336 78.6501 219.182C78.3583 219.028 78.1128 218.799 77.9389 218.518C77.765 218.238 77.6689 217.916 77.6605 217.586C77.6521 217.257 77.7317 216.93 77.8912 216.642V216.642ZM109.296 207.276C109.189 214.312 105.112 218.161 100.586 218.359C95.7199 218.574 91.7931 214.693 91.8429 208.007C91.9387 201.648 95.6436 196.922 101.153 197.07C106.515 197.214 109.383 201.534 109.296 207.276V207.276ZM97.6384 207.738C97.5335 211.397 98.6368 214.002 100.8 213.937C102.884 213.876 103.927 211.528 103.985 207.684C104.038 204.212 103.264 201.512 100.989 201.485C98.7274 201.457 97.6912 204.242 97.6384 207.738Z" fill="white"/>
<path style="mix-blend-mode:multiply" opacity="0.3" d="M154.645 174.602L59.6914 170.665C63.9774 183.356 70.1148 189.041 75.3895 191.824C85.4273 197.122 92.6243 192.063 101.227 198.918C110.057 205.955 106.694 214.643 115.991 220.497C122.979 224.897 127.483 221.629 134.73 225.608C140.097 228.551 143.451 233.542 145.598 238.54L154.654 238.003C156.013 237.922 157.115 236.584 157.115 235.028V177.534C157.106 175.977 156 174.658 154.645 174.602Z" fill="url(#paint17_linear_1_2450)"/>
<path style="mix-blend-mode:multiply" opacity="0.3" d="M155.768 205.021L153.451 202.823L151.253 205.14L148.936 202.943L146.737 205.26L144.42 203.062L142.222 205.379L139.905 203.18L137.707 205.497L135.39 203.299L133.192 205.616L130.875 203.417L128.679 205.736L126.362 203.537L124.164 205.854L121.847 203.656L119.649 205.973L116.688 203.164V237.869C116.688 237.869 116.568 239.857 114.165 240.38L155.141 237.375C155.595 237.341 156.036 237.215 156.44 237.005C156.875 236.441 157.11 235.748 157.109 235.035V203.611L155.768 205.021Z" fill="url(#paint18_linear_1_2450)"/>
<path d="M162.355 203.87V235.484C162.355 237.248 160.95 238.714 159.192 238.844L146.198 239.795L118.122 241.848C120.525 241.325 120.577 239.337 120.577 239.337V204.631L123.596 207.441L125.177 205.806L125.838 205.127L128.162 207.325L130.364 205.008L132.683 207.207L134.882 204.89L137.199 207.087L139.398 204.771L141.715 206.969L143.913 204.652L146.23 206.85L148.43 204.533L150.746 206.732L152.945 204.415L155.262 206.615L157.46 204.296L159.821 206.496L162.355 203.87Z" fill="white"/>
<path d="M157.625 222.23L152.557 222.457C152.393 222.464 152.238 222.534 152.125 222.653C152.011 222.772 151.948 222.929 151.948 223.094V225.42C151.948 225.506 151.965 225.592 152 225.672C152.034 225.752 152.084 225.824 152.147 225.883C152.211 225.943 152.285 225.989 152.367 226.019C152.448 226.049 152.535 226.061 152.622 226.057L157.69 225.771C157.853 225.762 158.006 225.691 158.118 225.573C158.231 225.454 158.293 225.298 158.294 225.134V222.868C158.294 222.782 158.276 222.696 158.242 222.617C158.208 222.537 158.158 222.466 158.096 222.406C158.033 222.346 157.959 222.3 157.878 222.27C157.797 222.24 157.711 222.226 157.625 222.23V222.23Z" fill="#D8DEE8"/>
<path d="M157.617 226.725L152.55 227.011C152.387 227.02 152.233 227.091 152.121 227.209C152.009 227.328 151.946 227.485 151.946 227.648V230.076C151.946 230.163 151.964 230.25 151.999 230.33C152.033 230.41 152.084 230.482 152.148 230.542C152.211 230.602 152.287 230.648 152.369 230.677C152.451 230.707 152.538 230.719 152.626 230.713L157.693 230.39C157.855 230.38 158.007 230.308 158.118 230.19C158.229 230.071 158.29 229.915 158.29 229.753V227.362C158.29 227.276 158.273 227.19 158.238 227.11C158.204 227.03 158.154 226.959 158.091 226.899C158.028 226.839 157.953 226.793 157.872 226.763C157.79 226.734 157.704 226.721 157.617 226.725V226.725Z" fill="#D8DEE8"/>
<path d="M158.291 215.784V211.622C158.291 211.537 158.274 211.452 158.24 211.373C158.207 211.294 158.158 211.223 158.096 211.163C158.035 211.104 157.962 211.057 157.882 211.027C157.802 210.996 157.716 210.982 157.631 210.985L152.563 211.167C152.398 211.173 152.241 211.242 152.127 211.361C152.012 211.48 151.948 211.639 151.948 211.804V216.012C151.948 216.098 151.965 216.183 151.999 216.263C152.033 216.342 152.083 216.414 152.145 216.473C152.207 216.533 152.281 216.579 152.362 216.609C152.443 216.64 152.529 216.653 152.615 216.65L157.682 216.423C157.847 216.416 158.002 216.345 158.115 216.226C158.229 216.107 158.292 215.948 158.291 215.784V215.784Z" fill="#D8DEE8"/>
<path d="M147.095 222.705L126.461 223.635C126.296 223.643 126.142 223.713 126.028 223.832C125.915 223.951 125.851 224.109 125.852 224.273V226.893C125.852 226.98 125.869 227.065 125.904 227.145C125.938 227.225 125.988 227.297 126.051 227.357C126.114 227.416 126.189 227.462 126.271 227.492C126.352 227.522 126.439 227.535 126.526 227.53L147.16 226.367C147.323 226.358 147.476 226.287 147.588 226.169C147.701 226.05 147.763 225.893 147.763 225.73V223.343C147.763 223.256 147.746 223.171 147.712 223.091C147.678 223.012 147.628 222.94 147.566 222.881C147.503 222.821 147.429 222.775 147.348 222.744C147.267 222.714 147.181 222.701 147.095 222.705V222.705Z" fill="#D8DEE8"/>
<path d="M147.089 227.321L126.455 228.485C126.292 228.493 126.139 228.564 126.026 228.683C125.914 228.801 125.852 228.958 125.852 229.122V231.745C125.852 231.832 125.869 231.919 125.904 231.999C125.939 232.079 125.99 232.151 126.053 232.211C126.117 232.27 126.192 232.316 126.274 232.346C126.356 232.375 126.444 232.387 126.531 232.382L147.165 231.064C147.327 231.054 147.479 230.983 147.59 230.864C147.701 230.746 147.762 230.59 147.763 230.427V227.959C147.763 227.872 147.745 227.786 147.711 227.706C147.676 227.627 147.626 227.555 147.563 227.495C147.5 227.435 147.426 227.389 147.344 227.359C147.263 227.329 147.176 227.316 147.089 227.321V227.321Z" fill="#D8DEE8"/>
<path d="M147.763 216.259V212C147.763 211.914 147.746 211.829 147.713 211.75C147.679 211.671 147.63 211.6 147.568 211.541C147.507 211.481 147.434 211.435 147.353 211.404C147.273 211.373 147.188 211.359 147.102 211.362L126.468 212.105C126.303 212.111 126.147 212.181 126.032 212.3C125.917 212.419 125.853 212.577 125.853 212.743V217.187C125.853 217.274 125.871 217.359 125.904 217.438C125.938 217.517 125.988 217.589 126.05 217.649C126.113 217.708 126.186 217.755 126.267 217.785C126.348 217.815 126.434 217.829 126.52 217.825L147.154 216.894C147.318 216.887 147.473 216.817 147.586 216.699C147.699 216.58 147.763 216.423 147.763 216.259Z" fill="#D8DEE8"/>
<g style="mix-blend-mode:multiply" opacity="0.4">
<path d="M146.176 239.796L118.113 241.848C120.517 241.325 120.58 239.337 120.58 239.337V204.632L123.599 207.442L125.18 205.806C126.499 206.999 127.559 208.916 127.853 211.952C128.834 222.066 133.571 221.397 139.162 221.777C144.753 222.156 147.326 228.627 145.063 233.626C144.049 235.862 144.462 238.113 146.176 239.796Z" fill="#F4F7FA"/>
</g>
<path d="M52.6934 240.981V245.125C52.6934 246.464 61.0579 247.55 71.3771 247.55C81.6964 247.55 90.0602 246.464 90.0602 245.125V240.981H52.6934Z" fill="url(#paint19_linear_1_2450)"/>
<path d="M90.0602 240.981C90.0602 242.32 81.6956 243.406 71.3771 243.406C61.0586 243.406 52.6934 242.322 52.6934 240.981C52.6934 239.64 61.0564 238.558 71.3771 238.558C81.6979 238.558 90.0602 239.645 90.0602 240.981Z" fill="url(#paint20_linear_1_2450)"/>
<path d="M71.3772 243.575C62.2383 243.575 52.6821 242.703 52.6821 241.019C52.6821 240.926 52.7153 240.764 52.8082 240.764C52.901 240.764 52.8602 240.891 52.8602 240.983C52.8602 242.051 60.4648 243.241 71.3772 243.241C82.2897 243.241 89.8934 242.051 89.8934 240.983C89.8934 240.891 89.9093 240.805 90.0013 240.805C90.0934 240.805 90.0715 240.928 90.0715 241.02C90.0715 242.703 80.5153 243.575 71.3772 243.575Z" fill="url(#paint21_linear_1_2450)"/>
<path d="M69.6111 241.118C69.7943 240.992 69.99 240.866 70.1983 240.741C70.452 240.598 70.7215 240.486 71.0013 240.407C71.4046 240.292 71.8165 240.211 72.233 240.163C72.8454 240.093 73.4613 240.06 74.0776 240.063C74.8001 240.06 75.4793 240.083 76.1153 240.132C76.6765 240.172 77.2347 240.246 77.787 240.354C78.1915 240.428 78.5857 240.55 78.9613 240.718C79.2632 240.862 79.4398 241.029 79.4979 241.215L81.6013 241.237C81.7368 241.236 81.8721 241.248 82.0051 241.274C82.1221 241.298 82.1795 241.328 82.1795 241.365V241.538L79.4753 241.512C79.3802 241.724 79.1384 241.918 78.75 242.094C78.2733 242.299 77.7761 242.452 77.267 242.552L76.2859 242.415C76.212 242.405 76.1392 242.388 76.0685 242.364C76.0112 242.343 75.984 242.32 75.984 242.296C75.984 242.272 76.0595 242.22 76.2104 242.182C76.3613 242.143 76.5349 242.086 76.7266 242.023C76.919 241.958 77.1075 241.882 77.2912 241.796C77.4443 241.736 77.574 241.628 77.661 241.488L71.2776 241.425C71.0966 241.556 70.9084 241.678 70.7138 241.789C70.4511 241.929 70.1723 242.037 69.8836 242.111C69.4623 242.22 69.0335 242.297 68.6006 242.343C67.9572 242.409 67.3108 242.441 66.664 242.438C66.0783 242.438 65.5093 242.418 64.9508 242.371C64.4514 242.332 63.955 242.261 63.4647 242.159C63.0964 242.086 62.7383 241.969 62.3983 241.81C62.1221 241.672 61.9666 241.512 61.9342 241.332L60.1983 241.314C60.0612 241.314 59.9243 241.302 59.7893 241.278C59.67 241.255 59.6089 241.224 59.6089 241.185V241.013L61.9764 241.035C62.0813 240.853 62.2957 240.693 62.624 240.558C63.0136 240.404 63.4155 240.283 63.8255 240.197L64.6187 240.305C64.8595 240.339 64.9795 240.381 64.9795 240.425C64.9795 240.449 64.9311 240.479 64.8285 240.516C64.7259 240.553 64.6096 240.595 64.473 240.646C64.3377 240.696 64.2058 240.756 64.0783 240.824C63.9662 240.878 63.8677 240.957 63.79 241.055L69.6111 241.118ZM63.7734 241.358C63.8403 241.49 63.9515 241.594 64.0874 241.652C64.2792 241.745 64.4821 241.813 64.6911 241.855C64.9585 241.912 65.2292 241.951 65.5017 241.972C65.8036 241.996 66.1186 242.008 66.4466 242.007C66.7818 242.007 67.1169 241.99 67.4504 241.957C67.7045 241.931 67.9566 241.889 68.2051 241.83C68.3983 241.784 68.5871 241.722 68.7696 241.644C68.9193 241.578 69.0636 241.501 69.2013 241.413L63.7734 241.358ZM77.67 241.207C77.6225 241.092 77.5062 240.991 77.3259 240.905C77.1047 240.806 76.8727 240.733 76.6345 240.687C76.3107 240.623 75.9829 240.579 75.6534 240.556C75.2811 240.527 74.87 240.514 74.4202 240.516C74.0751 240.515 73.7301 240.533 73.387 240.57C73.1341 240.597 72.8834 240.643 72.6368 240.705C72.4504 240.753 72.2695 240.82 72.0972 240.905C71.9544 240.978 71.8163 241.059 71.6836 241.149L77.67 241.207Z" fill="#FCB048"/>
<path d="M71.3798 238.821C63.0492 238.821 54.3752 239.554 52.9873 240.974C53.041 241.023 53.0915 241.076 53.1382 241.133C54.3081 240.148 61.4703 239.155 71.379 239.155C81.542 239.155 88.8198 240.199 89.7005 241.209C89.7439 241.153 89.7908 241.1 89.8409 241.051C88.6952 239.581 79.8583 238.821 71.3798 238.821Z" fill="url(#paint22_linear_1_2450)"/>
<path d="M47.4995 236.63V240.774C47.4995 242.114 55.864 243.199 66.1833 243.199C76.5025 243.199 84.8663 242.114 84.8663 240.774V236.63H47.4995Z" fill="url(#paint23_linear_1_2450)"/>
<path d="M84.8663 236.63C84.8663 237.97 76.5018 239.055 66.1833 239.055C55.8648 239.055 47.4995 237.97 47.4995 236.63C47.4995 235.291 55.864 234.206 66.1833 234.206C76.5025 234.206 84.8663 235.291 84.8663 236.63Z" fill="url(#paint24_linear_1_2450)"/>
<path d="M66.1834 239.222C57.0445 239.222 47.4883 238.349 47.4883 236.666C47.4883 236.574 47.5215 236.411 47.6143 236.411C47.7072 236.411 47.6664 236.538 47.6664 236.63C47.6664 237.698 55.2709 238.888 66.1834 238.888C77.0959 238.888 84.6997 237.698 84.6997 236.63C84.6997 236.538 84.7155 236.451 84.8076 236.451C84.8997 236.451 84.8778 236.575 84.8778 236.667C84.8778 238.351 75.3208 239.222 66.1834 239.222Z" fill="url(#paint25_linear_1_2450)"/>
<path d="M64.4173 236.765C64.6009 236.638 64.7966 236.513 65.0044 236.388C65.2579 236.245 65.5274 236.132 65.8075 236.053C66.2107 235.938 66.6226 235.857 67.0391 235.81C67.6514 235.739 68.2674 235.706 68.8837 235.71C69.6057 235.706 70.2837 235.729 70.9176 235.779C71.4788 235.818 72.0371 235.892 72.5893 236C72.9939 236.074 73.3881 236.197 73.7637 236.364C74.0656 236.509 74.2429 236.675 74.3003 236.862L76.4037 236.883C76.5392 236.882 76.6744 236.895 76.8074 236.921C76.9252 236.944 76.9818 236.974 76.9818 237.011V237.185L74.2776 237.158C74.1825 237.371 73.9408 237.565 73.5524 237.741C73.0755 237.945 72.5784 238.099 72.0693 238.198L71.0882 238.061C71.0142 238.051 70.9414 238.034 70.8708 238.01C70.8135 237.989 70.7863 237.967 70.7863 237.942C70.7863 237.917 70.8618 237.871 71.0127 237.828C71.1637 237.785 71.3373 237.732 71.529 237.669C71.7214 237.605 71.91 237.529 72.0935 237.443C72.2467 237.383 72.3765 237.275 72.4633 237.136L66.0799 237.072C65.8988 237.204 65.7106 237.325 65.5161 237.436C65.2535 237.577 64.9747 237.685 64.6859 237.758C64.2647 237.867 63.8358 237.945 63.4029 237.99C62.7595 238.056 62.1131 238.087 61.4663 238.084C60.8807 238.084 60.3116 238.065 59.7531 238.018C59.2528 237.981 58.7554 237.912 58.2641 237.811C57.8957 237.739 57.5376 237.622 57.1976 237.463C56.9214 237.324 56.7659 237.161 56.7335 236.984L54.9976 236.967C54.8605 236.967 54.7235 236.955 54.5886 236.93C54.4693 236.907 54.4082 236.877 54.4082 236.838V236.665L56.7758 236.687C56.8807 236.505 57.095 236.346 57.4233 236.21C57.813 236.057 58.2149 235.936 58.6248 235.849L59.418 235.958C59.6588 235.991 59.7788 236.034 59.7788 236.077C59.7788 236.102 59.7305 236.132 59.6278 236.168C59.5252 236.204 59.409 236.248 59.2724 236.299C59.1368 236.349 59.005 236.408 58.8776 236.477C58.7654 236.531 58.6669 236.61 58.5893 236.708L64.4173 236.765ZM58.5758 237.001C58.6424 237.133 58.7536 237.237 58.8897 237.295C59.0814 237.388 59.2843 237.457 59.4935 237.498C59.76 237.555 60.03 237.594 60.3018 237.615C60.6037 237.64 60.9186 237.651 61.2467 237.65C61.5819 237.651 61.9169 237.634 62.2505 237.601C62.5033 237.574 62.7541 237.532 63.0014 237.473C63.1946 237.427 63.3834 237.365 63.5659 237.287C63.7163 237.221 63.8614 237.144 63.9999 237.056L58.5758 237.001ZM72.4724 236.847C72.4248 236.731 72.3086 236.631 72.1282 236.545C71.9072 236.445 71.6751 236.372 71.4369 236.327C71.1131 236.261 70.7853 236.217 70.4557 236.195C70.0839 236.166 69.6729 236.153 69.2225 236.155C68.8774 236.154 68.5325 236.172 68.1893 236.208C67.9363 236.236 67.6856 236.281 67.4391 236.345C67.2527 236.392 67.0718 236.458 66.8995 236.544C66.7568 236.617 66.6186 236.698 66.4859 236.788L72.4724 236.847Z" fill="#FCB048"/>
<path d="M66.1888 234.468C57.8583 234.468 49.1843 235.201 47.7964 236.62C47.8503 236.67 47.9007 236.723 47.9473 236.78C49.1171 235.795 56.2794 234.803 66.1881 234.803C76.3511 234.803 83.6288 235.847 84.5104 236.856C84.5534 236.8 84.6001 236.747 84.65 236.698C83.5013 235.228 74.6643 234.468 66.1888 234.468Z" fill="url(#paint26_linear_1_2450)"/>
<path d="M51.981 232.291V236.435C51.981 237.774 60.3462 238.859 70.6647 238.859C80.9832 238.859 89.3485 237.774 89.3485 236.435V232.291H51.981Z" fill="url(#paint27_linear_1_2450)"/>
<path d="M89.3485 232.291C89.3485 233.63 80.9832 234.715 70.6647 234.715C60.3462 234.715 51.981 233.63 51.981 232.291C51.981 230.952 60.3462 229.866 70.6647 229.866C80.9832 229.866 89.3485 230.951 89.3485 232.291Z" fill="url(#paint28_linear_1_2450)"/>
<path d="M70.6651 234.882C61.5262 234.882 51.9707 234.009 51.9707 232.326C51.9707 232.233 52.0032 232.071 52.096 232.071C52.1888 232.071 52.1488 232.198 52.1488 232.291C52.1488 233.358 59.7534 234.548 70.6651 234.548C81.5768 234.548 89.1813 233.358 89.1813 232.291C89.1813 232.198 89.1972 232.111 89.2892 232.111C89.3813 232.111 89.3594 232.235 89.3594 232.327C89.3587 234.011 79.8032 234.882 70.6651 234.882Z" fill="url(#paint29_linear_1_2450)"/>
<path d="M68.8998 232.426C69.0824 232.299 69.2781 232.173 69.4869 232.048C69.7402 231.906 70.0095 231.793 70.2892 231.714C70.6924 231.599 71.1044 231.518 71.5209 231.47C72.1333 231.401 72.7492 231.368 73.3654 231.371C74.0874 231.367 74.7654 231.39 75.3994 231.439C75.9609 231.479 76.5195 231.553 77.0718 231.661C77.4761 231.735 77.8701 231.857 78.2454 232.025C78.5473 232.17 78.7262 232.336 78.782 232.522L80.8862 232.543C81.0214 232.543 81.1564 232.556 81.2892 232.581C81.4069 232.605 81.4635 232.635 81.4635 232.672V232.845L78.7594 232.819C78.6643 233.032 78.4225 233.226 78.0341 233.402C77.5572 233.606 77.0601 233.759 76.5511 233.859L75.57 233.722C75.496 233.712 75.4231 233.695 75.3526 233.67C75.296 233.65 75.2681 233.627 75.2681 233.603C75.2681 233.579 75.3435 233.528 75.4945 233.489C75.6454 233.451 75.8183 233.393 76.01 233.33C76.2024 233.266 76.391 233.19 76.5745 233.103C76.7278 233.044 76.8577 232.936 76.9451 232.796L70.5609 232.733C70.3799 232.865 70.1917 232.986 69.9971 233.097C69.7346 233.237 69.4558 233.345 69.1669 233.418C68.7458 233.528 68.3169 233.606 67.8839 233.651C67.2405 233.716 66.5941 233.748 65.9473 233.745C65.3617 233.745 64.7926 233.726 64.2349 233.679C63.7353 233.64 63.2386 233.569 62.7481 233.467C62.3798 233.394 62.0217 233.277 61.6817 233.118C61.4054 232.979 61.25 232.82 61.2175 232.64L59.4862 232.622C59.3488 232.623 59.2116 232.61 59.0764 232.586C58.9571 232.563 58.8968 232.532 58.896 232.494V232.321L61.2643 232.343C61.3692 232.161 61.5835 232.002 61.9111 231.866C62.3008 231.712 62.703 231.591 63.1134 231.505L63.9066 231.614C64.1473 231.648 64.2666 231.689 64.2666 231.732C64.2666 231.757 64.2183 231.787 64.1156 231.823L63.7601 231.954C63.6248 232.005 63.4929 232.064 63.3654 232.132C63.2535 232.187 63.155 232.266 63.0771 232.363L68.8998 232.426ZM63.0575 232.662C63.1245 232.794 63.236 232.898 63.3722 232.955C63.5642 233.048 63.767 233.116 63.976 233.159C64.2433 233.215 64.5141 233.254 64.7866 233.275C65.0884 233.299 65.4037 233.311 65.7322 233.31C66.0672 233.31 66.4019 233.294 66.7352 233.26C66.988 233.234 67.2388 233.192 67.4862 233.134C67.6793 233.087 67.8681 233.024 68.0507 232.946C68.2004 232.881 68.3448 232.804 68.4824 232.716L63.0575 232.662ZM76.9541 232.506C76.9066 232.392 76.7911 232.291 76.6107 232.205C76.3892 232.105 76.157 232.032 75.9186 231.986C75.5948 231.921 75.267 231.877 74.9375 231.854C74.5657 231.826 74.1546 231.813 73.7043 231.815C73.3594 231.814 73.0147 231.832 72.6718 231.869C72.4186 231.896 72.1676 231.941 71.9209 232.005C71.7346 232.052 71.5538 232.119 71.3813 232.204C71.2387 232.277 71.1006 232.358 70.9677 232.448L76.9541 232.506Z" fill="#FCB048"/>
<path d="M70.6674 230.128C62.3368 230.128 53.6628 230.861 52.2749 232.28C52.3286 232.33 52.3791 232.383 52.4258 232.44C53.5957 231.454 60.7579 230.462 70.6666 230.462C80.8296 230.462 88.1074 231.506 88.9889 232.516C89.0317 232.46 89.0784 232.407 89.1285 232.358C87.9828 230.888 79.1458 230.128 70.6674 230.128Z" fill="url(#paint30_linear_1_2450)"/>
<path d="M54.7012 227.937V232.082C54.7012 233.42 63.0657 234.506 73.3842 234.506C83.7027 234.506 92.068 233.42 92.068 232.082V227.937H54.7012Z" fill="url(#paint31_linear_1_2450)"/>
<path d="M73.384 230.362C83.7027 230.362 92.0677 229.277 92.0677 227.937C92.0677 226.598 83.7027 225.512 73.384 225.512C63.0652 225.512 54.7002 226.598 54.7002 227.937C54.7002 229.277 63.0652 230.362 73.384 230.362Z" fill="url(#paint32_linear_1_2450)"/>
<path d="M73.3843 230.529C64.2462 230.529 54.6899 229.657 54.6899 227.973C54.6899 227.88 54.7231 227.718 54.8152 227.718C54.9073 227.718 54.8681 227.845 54.8681 227.938C54.8681 229.005 62.4726 230.195 73.3843 230.195C84.296 230.195 91.9005 229.005 91.9005 227.938C91.9005 227.845 91.9164 227.759 92.0092 227.759C92.102 227.759 92.0794 227.882 92.0794 227.975C92.0794 229.661 82.5232 230.529 73.3843 230.529Z" fill="url(#paint33_linear_1_2450)"/>
<path d="M71.6227 228.075C71.8061 227.949 72.0001 227.823 72.2099 227.698C72.4633 227.556 72.7325 227.443 73.0121 227.364C73.4154 227.249 73.8273 227.168 74.2438 227.12C74.8564 227.051 75.4726 227.017 76.0891 227.02C76.8116 227.017 77.4894 227.04 78.1223 227.09C78.6838 227.129 79.2423 227.203 79.7948 227.311C80.1994 227.385 80.5936 227.508 80.9691 227.675C81.271 227.82 81.4499 227.986 81.5057 228.173L83.6091 228.194C83.7443 228.193 83.8793 228.205 84.0121 228.231C84.1299 228.255 84.1872 228.285 84.1872 228.322V228.495L81.4823 228.469C81.388 228.682 81.1457 228.875 80.7578 229.051C80.281 229.256 79.7839 229.41 79.2748 229.509L78.2936 229.372C78.2195 229.362 78.1465 229.345 78.0755 229.321C78.0189 229.3 77.9917 229.278 77.991 229.253C77.9902 229.228 78.0665 229.182 78.2174 229.139C78.3683 229.096 78.5419 229.043 78.7336 228.98C78.9258 228.916 79.114 228.84 79.2974 228.754C79.4508 228.694 79.5807 228.586 79.668 228.446L73.2831 228.385C73.1019 228.516 72.9137 228.638 72.7193 228.749C72.4565 228.889 72.1777 228.997 71.8891 229.07C71.4678 229.179 71.0389 229.257 70.6061 229.302C69.9625 229.368 69.3158 229.4 68.6687 229.397C68.0838 229.397 67.514 229.377 66.9563 229.331C66.4569 229.292 65.9605 229.221 65.4702 229.119C65.102 229.046 64.7439 228.929 64.4038 228.77C64.1266 228.631 63.9719 228.471 63.9397 228.291L62.2076 228.274C62.0705 228.274 61.9336 228.262 61.7985 228.238C61.6793 228.214 61.6182 228.183 61.6182 228.146V227.972L63.9857 227.995C64.0906 227.812 64.305 227.653 64.6333 227.518C65.0228 227.363 65.4247 227.242 65.8348 227.156L66.628 227.265C66.869 227.299 66.9892 227.338 66.9887 227.384C66.9887 227.408 66.9397 227.439 66.8378 227.475L66.4823 227.605C66.3474 227.656 66.2158 227.716 66.0884 227.783C65.9761 227.838 65.8776 227.917 65.8 228.014L71.6227 228.075ZM65.7804 228.312C65.8476 228.443 65.959 228.547 66.0951 228.605C66.287 228.698 66.4898 228.767 66.6989 228.808C66.9664 228.865 67.2375 228.905 67.5102 228.925C67.8121 228.95 68.1271 228.962 68.4551 228.96C68.7904 228.961 69.1254 228.944 69.4589 228.91C69.713 228.885 69.9651 228.842 70.2136 228.783C70.4068 228.737 70.5956 228.675 70.7782 228.597C70.9274 228.533 71.0714 228.457 71.2091 228.371L65.7804 228.312ZM79.6778 228.157C79.6302 228.042 79.514 227.94 79.3336 227.855C79.1124 227.755 78.8801 227.682 78.6416 227.636C78.3177 227.571 77.99 227.528 77.6604 227.505C77.2891 227.476 76.8783 227.463 76.428 227.465C76.0828 227.464 75.7379 227.482 75.3948 227.519C75.1415 227.546 74.8905 227.592 74.6438 227.655C74.4576 227.702 74.277 227.769 74.105 227.854C73.9619 227.927 73.8238 228.008 73.6914 228.098L79.6778 228.157Z" fill="#FCB048"/>
<path d="M73.3871 225.775C65.0565 225.775 56.3818 226.508 54.9946 227.928C55.0484 227.977 55.0988 228.03 55.1456 228.087C56.3146 227.102 63.4776 226.109 73.3863 226.109C83.5493 226.109 90.8263 227.153 91.7078 228.163C91.7513 228.108 91.7979 228.055 91.8475 228.005C90.7026 226.535 81.8656 225.775 73.3871 225.775Z" fill="url(#paint34_linear_1_2450)"/>
<path d="M52.6934 223.245V227.389C52.6934 228.728 61.0579 229.814 71.3771 229.814C81.6964 229.814 90.0602 228.728 90.0602 227.389V223.245H52.6934Z" fill="url(#paint35_linear_1_2450)"/>
<path d="M90.0602 223.245C90.0602 224.584 81.6956 225.669 71.3771 225.669C61.0586 225.669 52.6934 224.58 52.6934 223.245C52.6934 221.91 61.0579 220.82 71.3771 220.82C81.6964 220.82 90.0602 221.902 90.0602 223.245Z" fill="url(#paint36_linear_1_2450)"/>
<path d="M71.3772 225.833C62.2383 225.833 52.6821 224.96 52.6821 223.276C52.6821 223.184 52.7153 223.022 52.8082 223.022C52.901 223.022 52.8602 223.149 52.8602 223.241C52.8602 224.309 60.4648 225.498 71.3772 225.498C82.2897 225.498 89.8934 224.309 89.8934 223.241C89.8934 223.149 89.9093 223.062 90.0013 223.062C90.0934 223.062 90.0715 223.186 90.0715 223.278C90.0715 224.961 80.5153 225.833 71.3772 225.833Z" fill="url(#paint37_linear_1_2450)"/>
<path d="M69.6115 223.377C69.7949 223.249 69.9889 223.125 70.1987 222.999C70.4522 222.856 70.7217 222.744 71.0017 222.665C71.4049 222.55 71.8168 222.468 72.2334 222.421C72.8457 222.352 73.4617 222.318 74.0779 222.321C74.8004 222.317 75.4797 222.34 76.1157 222.39C76.6769 222.43 77.2351 222.504 77.7874 222.611C78.1918 222.686 78.586 222.808 78.9617 222.976C79.2636 223.121 79.4402 223.287 79.4983 223.473L81.6017 223.494C81.7372 223.494 81.8724 223.507 82.0055 223.532C82.1224 223.556 82.1798 223.586 82.1798 223.623V223.796L79.4719 223.774C79.3768 223.986 79.135 224.18 78.7466 224.356C78.2697 224.561 77.7726 224.714 77.2636 224.814L76.2824 224.676C76.2084 224.667 76.1356 224.65 76.0651 224.625C76.0077 224.605 75.9806 224.582 75.9806 224.557C75.9806 224.532 76.056 224.486 76.207 224.444C76.3579 224.402 76.5315 224.348 76.7232 224.285C76.9157 224.22 77.1042 224.145 77.2877 224.058C77.441 223.998 77.5708 223.891 77.6575 223.751L71.2741 223.688C71.0932 223.819 70.905 223.941 70.7104 224.051C70.4478 224.192 70.169 224.3 69.8802 224.373C69.4589 224.482 69.0301 224.56 68.5972 224.605C67.9537 224.671 67.3073 224.703 66.6606 224.7C66.0749 224.7 65.5058 224.681 64.9474 224.633C64.448 224.595 63.9516 224.524 63.4613 224.422C63.093 224.349 62.7349 224.232 62.3949 224.073C62.1187 223.934 61.9632 223.774 61.9308 223.594L60.1949 223.577C60.0577 223.577 59.9208 223.565 59.7858 223.54C59.6666 223.518 59.6055 223.487 59.6055 223.448V223.275L61.973 223.297C62.0779 223.115 62.2923 222.956 62.6206 222.82C63.0103 222.667 63.4122 222.546 63.8221 222.459L64.6153 222.568C64.8563 222.602 64.9765 222.642 64.976 222.687C64.976 222.712 64.9277 222.742 64.8251 222.778C64.7224 222.814 64.6062 222.858 64.4696 222.909C64.3341 222.959 64.2022 223.018 64.0749 223.087C63.9628 223.141 63.8643 223.22 63.7866 223.318L69.6115 223.377ZM63.77 223.612C63.8366 223.744 63.9479 223.848 64.084 223.906C64.2757 223.999 64.4786 224.068 64.6877 224.109C64.9551 224.166 65.2258 224.205 65.4983 224.226C65.8002 224.251 66.1152 224.262 66.4432 224.26C66.7784 224.261 67.1134 224.245 67.447 224.211C67.7011 224.185 67.9532 224.143 68.2017 224.084C68.3948 224.038 68.5837 223.976 68.7662 223.897C68.9157 223.833 69.0601 223.757 69.1979 223.671L63.77 223.612ZM77.6666 223.457C77.619 223.343 77.5028 223.242 77.3224 223.155C77.1014 223.056 76.8693 222.983 76.6311 222.937C76.3073 222.872 75.9795 222.828 75.65 222.805C75.2777 222.777 74.8666 222.763 74.4168 222.765C74.0717 222.765 73.7268 222.783 73.3836 222.819C73.1306 222.846 72.8799 222.892 72.6334 222.955C72.4471 223.003 72.2663 223.07 72.0938 223.155C71.951 223.227 71.8129 223.309 71.6802 223.399L77.6666 223.457Z" fill="#FCB048"/>
<path d="M71.3798 221.079C63.0492 221.079 54.3752 221.812 52.9873 223.231C53.0411 223.281 53.0915 223.335 53.1382 223.391C54.3081 222.405 61.4703 221.414 71.379 221.414C81.542 221.414 88.8198 222.458 89.7005 223.467C89.7441 223.411 89.7909 223.359 89.8409 223.309C88.6952 221.839 79.8583 221.079 71.3798 221.079Z" fill="url(#paint38_linear_1_2450)"/>
<path d="M47.4995 218.888V223.032C47.4995 224.371 55.864 225.457 66.1833 225.457C76.5025 225.457 84.8663 224.371 84.8663 223.032V218.888H47.4995Z" fill="url(#paint39_linear_1_2450)"/>
<path d="M66.1833 221.313C76.5021 221.313 84.8671 220.228 84.8671 218.889C84.8671 217.549 76.5021 216.464 66.1833 216.464C55.8645 216.464 47.4995 217.549 47.4995 218.889C47.4995 220.228 55.8645 221.313 66.1833 221.313Z" fill="url(#paint40_linear_1_2450)"/>
<path d="M66.1834 221.48C57.0445 221.48 47.4883 220.607 47.4883 218.924C47.4883 218.831 47.5215 218.668 47.6143 218.668C47.7072 218.668 47.6664 218.795 47.6664 218.888C47.6664 219.956 55.2709 221.145 66.1834 221.145C77.0959 221.145 84.6997 219.956 84.6997 218.888C84.6997 218.795 84.7155 218.709 84.8076 218.709C84.8997 218.709 84.8778 218.832 84.8778 218.925C84.8778 220.608 75.3208 221.48 66.1834 221.48Z" fill="url(#paint41_linear_1_2450)"/>
<path d="M64.4172 219.023C64.6008 218.897 64.7965 218.771 65.0043 218.646C65.258 218.504 65.5275 218.391 65.8074 218.312C66.2106 218.197 66.6226 218.116 67.0391 218.068C67.6514 217.999 68.2673 217.965 68.8836 217.968C69.6056 217.965 70.2836 217.988 70.9175 218.038C71.4788 218.077 72.037 218.151 72.5892 218.259C72.9937 218.333 73.388 218.455 73.7636 218.623C74.0655 218.768 74.2428 218.934 74.3002 219.12L76.4036 219.142C76.5391 219.141 76.6743 219.153 76.8074 219.179C76.9251 219.203 76.9817 219.233 76.9817 219.27V219.443L74.2775 219.417C74.1825 219.63 73.9407 219.824 73.5523 219.999C73.0755 220.204 72.5784 220.357 72.0692 220.457L71.0881 220.32C71.0142 220.31 70.9414 220.293 70.8708 220.269C70.8134 220.248 70.7862 220.225 70.7862 220.201C70.7862 220.177 70.8617 220.129 71.0126 220.087C71.1636 220.045 71.3372 219.991 71.5289 219.928C71.7213 219.865 71.9098 219.79 72.0934 219.705C72.2466 219.645 72.3763 219.537 72.4632 219.397L66.0798 219.334C65.8988 219.465 65.7106 219.587 65.516 219.697C65.2533 219.838 64.9746 219.946 64.6859 220.02C64.2646 220.129 63.8357 220.206 63.4028 220.251C62.7595 220.318 62.113 220.349 61.4662 220.346C60.8806 220.346 60.3115 220.327 59.753 220.28C59.2537 220.241 58.7574 220.17 58.267 220.068C57.8986 219.995 57.5405 219.878 57.2006 219.719C56.9243 219.58 56.7689 219.421 56.7364 219.241L55.0006 219.223C54.8634 219.223 54.7265 219.211 54.5915 219.187C54.4723 219.164 54.4111 219.133 54.4111 219.094V218.922L56.7787 218.944C56.8836 218.762 57.0979 218.602 57.4262 218.467C57.8158 218.313 58.2177 218.192 58.6277 218.106L59.4209 218.214C59.6617 218.248 59.7817 218.29 59.7817 218.334C59.7817 218.358 59.7334 218.388 59.6308 218.425C59.5281 218.462 59.4119 218.5 59.2753 218.555C59.1399 218.605 59.008 218.665 58.8806 218.733C58.7684 218.787 58.6699 218.866 58.5923 218.964L64.4172 219.023ZM58.5757 219.26C58.6426 219.391 58.7537 219.495 58.8896 219.553C59.0814 219.646 59.2843 219.715 59.4934 219.756C59.7607 219.813 60.0315 219.852 60.304 219.873C60.6059 219.898 60.9208 219.909 61.2489 219.908C61.5841 219.908 61.9191 219.892 62.2526 219.858C62.5055 219.833 62.7563 219.79 63.0036 219.731C63.1967 219.685 63.3856 219.623 63.5681 219.545C63.7178 219.479 63.8621 219.402 63.9998 219.314L58.5757 219.26ZM72.4723 219.105C72.4247 218.989 72.3085 218.888 72.1281 218.803C71.9069 218.704 71.6749 218.631 71.4368 218.585C71.1129 218.52 70.7852 218.476 70.4557 218.454C70.0838 218.425 69.6728 218.412 69.2225 218.414C68.8773 218.412 68.5324 218.43 68.1892 218.467C67.9363 218.495 67.6856 218.54 67.4391 218.603C67.2527 218.651 67.0718 218.718 66.8994 218.803C66.7567 218.875 66.6186 218.957 66.4858 219.046L72.4723 219.105Z" fill="#FCB048"/>
<path d="M66.1888 216.726C57.8583 216.726 49.1843 217.459 47.7964 218.878C47.8501 218.928 47.9005 218.981 47.9473 219.038C49.1171 218.053 56.2794 217.06 66.1881 217.06C76.3511 217.06 83.6288 218.104 84.5104 219.114C84.5532 219.058 84.5999 219.005 84.65 218.955C83.5013 217.486 74.6643 216.726 66.1888 216.726Z" fill="url(#paint42_linear_1_2450)"/>
<path d="M51.981 214.548V218.692C51.981 220.031 60.3462 221.117 70.6647 221.117C80.9832 221.117 89.3485 220.031 89.3485 218.692V214.548H51.981Z" fill="url(#paint43_linear_1_2450)"/>
<path d="M70.6647 216.973C80.9835 216.973 89.3485 215.887 89.3485 214.548C89.3485 213.209 80.9835 212.123 70.6647 212.123C60.346 212.123 51.981 213.209 51.981 214.548C51.981 215.887 60.346 216.973 70.6647 216.973Z" fill="url(#paint44_linear_1_2450)"/>
<path d="M70.6651 217.14C61.5262 217.14 51.9707 216.267 51.9707 214.583C51.9707 214.491 52.0032 214.328 52.096 214.328C52.1888 214.328 52.1488 214.456 52.1488 214.548C52.1488 215.616 59.7534 216.805 70.6651 216.805C81.5768 216.805 89.1813 215.616 89.1813 214.548C89.1813 214.456 89.1972 214.369 89.2892 214.369C89.3813 214.369 89.3594 214.492 89.3594 214.585C89.3587 216.269 79.8032 217.14 70.6651 217.14Z" fill="url(#paint45_linear_1_2450)"/>
<path d="M68.8998 214.683C69.0824 214.556 69.2781 214.43 69.4869 214.306C69.7402 214.163 70.0095 214.05 70.2892 213.971C70.6924 213.856 71.1044 213.775 71.5209 213.728C72.1332 213.657 72.7491 213.624 73.3654 213.628C74.0874 213.624 74.7654 213.647 75.3994 213.697C75.9609 213.736 76.5194 213.81 77.0718 213.918C77.4762 213.992 77.8702 214.114 78.2454 214.282C78.5473 214.427 78.7262 214.593 78.782 214.78L80.8862 214.801C81.0214 214.8 81.1564 214.812 81.2892 214.838C81.4069 214.862 81.4635 214.892 81.4635 214.929V215.103L78.7594 215.076C78.6643 215.289 78.4225 215.483 78.0341 215.658C77.5574 215.863 77.0603 216.017 76.5511 216.116L75.57 215.979C75.496 215.969 75.4232 215.952 75.3526 215.928C75.296 215.907 75.2681 215.885 75.2681 215.86C75.2681 215.835 75.3435 215.789 75.4945 215.746C75.6454 215.703 75.8183 215.65 76.01 215.587C76.2023 215.523 76.3908 215.447 76.5745 215.361C76.7277 215.301 76.8575 215.193 76.9451 215.054L70.5609 214.99C70.3798 215.122 70.1915 215.243 69.9971 215.354C69.7346 215.495 69.4558 215.603 69.1669 215.675C68.7457 215.785 68.3168 215.862 67.8839 215.907C67.2406 215.974 66.5941 216.005 65.9473 216.002C65.3617 216.002 64.7926 215.983 64.2349 215.936C63.7352 215.897 63.2386 215.826 62.7481 215.724C62.3799 215.651 62.0219 215.534 61.6817 215.375C61.4054 215.236 61.25 215.077 61.2175 214.897L59.4862 214.879C59.3488 214.879 59.2116 214.867 59.0764 214.843C58.9571 214.82 58.8968 214.789 58.896 214.751V214.577L61.2643 214.6C61.3692 214.417 61.5835 214.258 61.9111 214.123C62.301 213.969 62.7032 213.848 63.1134 213.762L63.9066 213.87C64.1473 213.904 64.2666 213.946 64.2666 213.989C64.2666 214.014 64.2183 214.045 64.1156 214.081C64.013 214.117 63.8968 214.161 63.7601 214.211C63.6248 214.262 63.4929 214.321 63.3654 214.389C63.2535 214.443 63.155 214.522 63.0771 214.62L68.8998 214.683ZM63.0575 214.919C63.1243 215.051 63.2358 215.155 63.3722 215.213C63.5639 215.306 63.7668 215.374 63.976 215.416C64.2432 215.473 64.514 215.512 64.7866 215.533C65.0884 215.558 65.4037 215.569 65.7322 215.568C66.0672 215.568 66.402 215.552 66.7352 215.519C66.9881 215.492 67.2389 215.45 67.4862 215.391C67.6793 215.345 67.8682 215.283 68.0507 215.205C68.2003 215.139 68.3446 215.062 68.4824 214.974L63.0575 214.919ZM76.9541 214.768C76.9066 214.653 76.7911 214.552 76.6107 214.466C76.3895 214.367 76.1572 214.293 75.9186 214.248C75.5948 214.183 75.2671 214.139 74.9375 214.116C74.5657 214.088 74.1546 214.074 73.7043 214.076C73.3594 214.076 73.0148 214.094 72.6718 214.13C72.4199 214.157 72.1702 214.202 71.9247 214.264C71.7382 214.311 71.5573 214.378 71.3851 214.463C71.2423 214.536 71.1042 214.617 70.9715 214.707L76.9541 214.768Z" fill="#FCB048"/>
<path d="M70.6674 212.385C62.3368 212.385 53.6628 213.119 52.2749 214.538C52.3286 214.588 52.3791 214.641 52.4258 214.697C53.5957 213.716 60.7579 212.721 70.6666 212.721C80.8296 212.721 88.1074 213.764 88.9889 214.773C89.0321 214.718 89.0787 214.665 89.1285 214.615C87.9828 213.146 79.1458 212.385 70.6674 212.385Z" fill="url(#paint46_linear_1_2450)"/>
<path d="M49.6499 210.196V214.34C49.6499 215.679 58.0152 216.764 68.3337 216.764C78.6522 216.764 87.019 215.679 87.019 214.34V210.196H49.6499Z" fill="url(#paint47_linear_1_2450)"/>
<path d="M68.3337 212.62C78.6524 212.62 87.0174 211.535 87.0174 210.195C87.0174 208.856 78.6524 207.771 68.3337 207.771C58.0149 207.771 49.6499 208.856 49.6499 210.195C49.6499 211.535 58.0149 212.62 68.3337 212.62Z" fill="url(#paint48_linear_1_2450)"/>
<path d="M68.3335 212.787C59.1954 212.787 49.6392 211.914 49.6392 210.231C49.6392 210.138 49.6724 209.976 49.7644 209.976C49.8565 209.976 49.8173 210.103 49.8173 210.196C49.8173 211.263 57.4218 212.453 68.3335 212.453C79.2452 212.453 86.8497 211.263 86.8497 210.196C86.8497 210.103 86.8656 210.016 86.9584 210.016C87.0512 210.016 87.0286 210.14 87.0286 210.232C87.0286 211.916 77.4724 212.787 68.3335 212.787Z" fill="url(#paint49_linear_1_2450)"/>
<path d="M66.5661 210.331C66.7495 210.204 66.9435 210.078 67.1533 209.953C67.4067 209.811 67.676 209.699 67.9556 209.619C68.3588 209.504 68.7707 209.422 69.1873 209.375C69.7999 209.306 70.416 209.272 71.0326 209.275C71.7541 209.271 72.4318 209.294 73.0658 209.344C73.6273 209.384 74.1858 209.458 74.7382 209.566C75.1425 209.64 75.5364 209.762 75.9118 209.93C76.2137 210.075 76.3926 210.24 76.4484 210.427L78.5526 210.448C78.6878 210.448 78.8228 210.46 78.9556 210.486C79.0733 210.51 79.1299 210.54 79.1307 210.577V210.75L76.4258 210.724C76.3317 210.937 76.0899 211.131 75.7005 211.306C75.2236 211.511 74.7265 211.664 74.2175 211.764L73.2363 211.627C73.1624 211.617 73.0896 211.599 73.019 211.575C72.9624 211.555 72.9344 211.532 72.9344 211.508C72.9344 211.484 73.0099 211.436 73.1609 211.394C73.3118 211.352 73.4854 211.298 73.6763 211.235C73.8689 211.171 74.0574 211.095 74.2409 211.008C74.3942 210.948 74.5241 210.841 74.6114 210.701L68.2265 210.641C68.0454 210.773 67.8572 210.894 67.6627 211.005C67.4001 211.146 67.1213 211.254 66.8326 211.327C66.4114 211.437 65.9825 211.514 65.5495 211.559C64.9061 211.625 64.2597 211.656 63.6129 211.653C63.028 211.653 62.4582 211.635 61.9005 211.587C61.4009 211.548 60.9043 211.478 60.4137 211.376C60.0456 211.303 59.6878 211.186 59.348 211.026C59.071 210.887 58.9156 210.724 58.8839 210.549L57.148 210.531C57.0108 210.531 56.8739 210.519 56.739 210.494C56.619 210.472 56.5586 210.441 56.5586 210.402V210.229L58.9269 210.252C59.0318 210.069 59.2461 209.91 59.5744 209.775C59.9638 209.62 60.3658 209.499 60.776 209.414L61.5692 209.522C61.8099 209.556 61.9292 209.598 61.9299 209.641C61.9299 209.666 61.8809 209.696 61.779 209.732L61.4235 209.863C61.2884 209.913 61.1568 209.973 61.0295 210.041C60.9172 210.095 60.8185 210.174 60.7405 210.272L66.5661 210.331ZM60.7261 210.566C60.7933 210.698 60.9047 210.802 61.0409 210.86C61.2328 210.952 61.4357 211.021 61.6446 211.063C61.9119 211.119 62.1827 211.158 62.4552 211.179C62.7571 211.203 63.0723 211.215 63.4009 211.214C63.7361 211.214 64.0711 211.198 64.4046 211.164C64.6574 211.138 64.9082 211.096 65.1556 211.038C65.3486 210.991 65.5375 210.929 65.7201 210.851C65.8697 210.786 66.0138 210.709 66.151 210.62L60.7261 210.566ZM74.6235 210.415C74.576 210.3 74.4597 210.199 74.2794 210.113C74.0579 210.014 73.8257 209.941 73.5873 209.895C73.2634 209.83 72.9357 209.786 72.6061 209.763C72.2343 209.734 71.8235 209.721 71.3737 209.724C71.0286 209.722 70.6836 209.74 70.3405 209.777C70.0859 209.804 69.8337 209.849 69.5858 209.913C69.3997 209.961 69.2192 210.028 69.0469 210.112C68.9042 210.185 68.7661 210.267 68.6333 210.356L74.6235 210.415Z" fill="#FCB048"/>
<path d="M68.3368 208.033C60.0055 208.033 51.3315 208.766 49.9443 210.185C49.9979 210.235 50.0483 210.289 50.0953 210.345C51.2643 209.359 58.4266 208.368 68.336 208.368C78.4991 208.368 85.776 209.411 86.6575 210.421C86.7006 210.365 86.7473 210.312 86.7972 210.263C85.6523 208.793 76.8153 208.033 68.3368 208.033Z" fill="url(#paint50_linear_1_2450)"/>
<path d="M92.332 213.117L88.9546 215.519C87.8633 216.295 91.8278 223.741 97.809 232.149C103.79 240.557 109.523 246.745 110.614 245.968L113.991 243.567L92.332 213.117Z" fill="url(#paint51_linear_1_2450)"/>
<path d="M113.991 243.567C112.9 244.343 107.167 238.155 101.186 229.747C95.2045 221.339 91.2408 213.893 92.3321 213.117C93.4234 212.341 99.1562 218.528 105.137 226.937C111.118 235.346 115.082 242.792 113.991 243.567Z" fill="url(#paint52_linear_1_2450)"/>
<path d="M101.049 229.844C95.7527 222.397 90.9247 214.104 92.2945 213.128C92.37 213.075 92.521 213.008 92.5753 213.083C92.6296 213.158 92.4998 213.199 92.4243 213.253C91.5542 213.872 94.9904 220.758 101.318 229.65C107.645 238.542 113.016 244.049 113.89 243.43C113.965 243.377 114.045 243.34 114.098 243.414C114.152 243.489 114.039 243.544 113.963 243.597C112.596 244.573 106.347 237.291 101.049 229.844Z" fill="url(#paint53_linear_1_2450)"/>
<path d="M102.028 226.981C102.238 227.056 102.453 227.143 102.675 227.242C102.938 227.366 103.185 227.52 103.412 227.702C103.739 227.964 104.044 228.252 104.324 228.564C104.736 229.023 105.121 229.506 105.475 230.01C105.897 230.596 106.271 231.162 106.598 231.707C106.891 232.187 107.154 232.686 107.386 233.198C107.561 233.571 107.69 233.963 107.77 234.366C107.826 234.694 107.795 234.936 107.676 235.091L108.878 236.818C108.957 236.928 109.025 237.045 109.081 237.168C109.13 237.278 109.138 237.342 109.109 237.364L108.967 237.465L107.421 235.245C107.195 235.291 106.893 235.207 106.527 234.992C106.084 234.722 105.671 234.406 105.294 234.049L104.835 233.167C104.8 233.101 104.772 233.031 104.751 232.96C104.735 232.902 104.737 232.866 104.757 232.852C104.777 232.838 104.86 232.872 104.983 232.972C105.107 233.071 105.249 233.18 105.411 233.3C105.575 233.42 105.745 233.53 105.921 233.631C106.058 233.721 106.221 233.764 106.386 233.754L102.737 228.515C102.525 228.444 102.317 228.361 102.114 228.267C101.848 228.135 101.599 227.971 101.372 227.779C101.038 227.499 100.726 227.194 100.438 226.868C100.011 226.382 99.6104 225.873 99.2376 225.345C98.8955 224.869 98.5825 224.391 98.2988 223.911C98.041 223.481 97.8111 223.036 97.6105 222.577C97.4561 222.235 97.3441 221.875 97.2769 221.506C97.2291 221.2 97.2691 220.981 97.3969 220.85L96.4074 219.429C96.3277 219.317 96.2582 219.199 96.1999 219.074C96.1493 218.964 96.1395 218.896 96.1705 218.874L96.3108 218.773L97.6693 220.716C97.8781 220.695 98.1327 220.778 98.4331 220.967C98.7846 221.195 99.1161 221.452 99.424 221.736L99.7954 222.446C99.9071 222.662 99.9463 222.782 99.9071 222.809C99.8874 222.823 99.8316 222.801 99.7471 222.741C99.6625 222.681 99.5546 222.609 99.4346 222.527C99.314 222.445 99.1879 222.372 99.0573 222.308C98.9478 222.249 98.8263 222.214 98.7018 222.207L102.028 226.981ZM98.4489 222.358C98.3803 222.489 98.3603 222.64 98.3923 222.784C98.4273 222.994 98.4889 223.198 98.5757 223.392C98.6855 223.643 98.8116 223.886 98.9531 224.121C99.1081 224.38 99.2814 224.644 99.4731 224.911C99.6667 225.184 99.8743 225.448 100.095 225.7C100.263 225.891 100.443 226.071 100.634 226.238C100.783 226.369 100.944 226.487 101.113 226.59C101.253 226.674 101.399 226.747 101.551 226.808L98.4489 222.358ZM106.631 233.592C106.697 233.487 106.712 233.333 106.678 233.139C106.629 232.901 106.553 232.669 106.451 232.449C106.317 232.147 106.162 231.855 105.989 231.573C105.798 231.253 105.571 230.911 105.31 230.545C105.111 230.264 104.896 229.993 104.667 229.735C104.498 229.544 104.316 229.366 104.121 229.202C103.975 229.077 103.816 228.969 103.646 228.878C103.504 228.804 103.358 228.738 103.208 228.682L106.631 233.592Z" fill="#FCB048"/>
<path d="M104.924 227.094C100.094 220.306 94.4708 213.66 92.51 213.354C92.5009 213.427 92.4868 213.499 92.4678 213.571C93.9485 213.952 98.9085 219.214 104.652 227.288C110.543 235.57 113.911 242.105 113.599 243.408C113.669 243.411 113.739 243.419 113.809 243.43C114.339 241.641 109.839 233.999 104.924 227.094Z" fill="url(#paint54_linear_1_2450)"/>
<path d="M201.585 235.265L199.895 235.398C199.456 235.433 199.016 235.415 198.582 235.343L191.876 234.251L191.767 234.233L183.975 232.962H183.926L177.82 231.973V197.613H183.962H183.975L191.767 198L191.882 198.058L201.307 198.421L201.585 235.265Z" fill="url(#paint55_linear_1_2450)"/>
<path d="M225.296 199.8V231.868C225.299 232.417 225.09 232.947 224.714 233.347C224.338 233.748 223.823 233.989 223.275 234.02L200.91 235.351C200.005 235.405 199.233 234.653 199.233 233.721V200.312C199.233 199.378 199.965 198.605 200.873 198.576L223.399 197.949C223.647 197.941 223.893 197.983 224.124 198.073C224.354 198.163 224.564 198.298 224.741 198.471C224.919 198.644 225.059 198.851 225.154 199.079C225.249 199.307 225.298 199.553 225.296 199.8V199.8Z" fill="url(#paint56_linear_1_2450)"/>
<path d="M177.866 197.613L199.233 198.625L223.399 197.951L198.623 197.144L177.866 197.613Z" fill="url(#paint57_linear_1_2450)"/>
<path style="mix-blend-mode:multiply" opacity="0.3" d="M223.368 197.952L205.726 198.444C205.236 198.463 204.772 198.672 204.432 199.026C204.092 199.38 203.903 199.852 203.904 200.343C203.904 202.055 204.191 203.823 204.944 205.53C207.456 211.218 213.07 211.428 214.238 216.649C215.211 220.999 211.765 222.871 211.4 228.43C211.302 230.017 211.46 231.609 211.866 233.146C211.976 233.573 212.23 233.949 212.586 234.211C212.941 234.472 213.377 234.602 213.817 234.58L223.53 234.002C224.009 233.974 224.459 233.764 224.788 233.414C225.116 233.064 225.298 232.601 225.296 232.121V199.831C225.297 199.58 225.248 199.331 225.151 199.099C225.054 198.867 224.911 198.658 224.731 198.482C224.551 198.307 224.338 198.169 224.103 198.078C223.869 197.987 223.619 197.944 223.368 197.952V197.952Z" fill="url(#paint58_linear_1_2450)"/>
<path d="M207.072 234.984L215.364 234.49V198.175L207.072 198.406V234.984Z" fill="url(#paint59_linear_1_2450)"/>
<path d="M207.446 234.961L215.364 234.49V198.175L207.446 198.396V234.961Z" fill="url(#paint60_linear_1_2450)"/>
<path d="M191.654 198.106V234.251L184.058 232.961V197.902L186.478 197.855L191.654 198.106Z" fill="url(#paint61_linear_1_2450)"/>
<path d="M192.433 197.284L215.549 198.599H207.238L187.029 197.406L192.433 197.284Z" fill="url(#paint62_linear_1_2450)"/>
<path d="M203.681 196.174C204.219 192.877 204.613 190.467 206.766 188.241C207.672 187.303 208.666 186.279 210.291 186.007C212.161 185.694 214.548 186.432 215.202 187.958C215.823 189.408 214.36 190.354 214.982 192.02C215.604 193.685 217.426 193.657 217.623 195.01C217.792 196.155 216.675 197.454 215.546 198.063C213.597 199.115 212.49 197.635 208.684 197.874C206.06 198.039 204.546 198.869 203.836 198.032C203.5 197.633 203.533 197.079 203.681 196.174Z" fill="url(#paint63_linear_1_2450)"/>
<g style="mix-blend-mode:multiply" opacity="0.3">
<path style="mix-blend-mode:multiply" opacity="0.3" d="M214.1 194.884C211.75 193.985 210.546 192.029 209.504 192.491C208.579 192.903 209.144 194.62 208.056 196.017C207.063 197.294 205.242 197.597 203.624 197.598C203.66 197.757 203.734 197.906 203.838 198.032C204.549 198.869 206.063 198.039 208.686 197.874C212.493 197.635 213.599 199.115 215.549 198.063C216.584 197.505 217.607 196.365 217.639 195.296C216.541 195.414 215.321 195.35 214.1 194.884Z" fill="url(#paint64_linear_1_2450)"/>
</g>
<path d="M189.484 188.022C191.069 186.773 192.729 188.165 194.678 186.794C196.65 185.404 196.077 183.176 197.605 182.544C199.382 181.81 202.013 184.05 203.272 185.472C206.47 189.082 207.972 195.493 205.444 197.748C204.495 198.595 201.809 198.246 196.475 197.514C190.378 196.677 189.501 196.08 188.918 195.293C187.345 193.179 187.698 189.434 189.484 188.022Z" fill="url(#paint65_linear_1_2450)"/>
<g style="mix-blend-mode:multiply" opacity="0.3">
<path style="mix-blend-mode:multiply" opacity="0.3" d="M199.494 190.729C198.616 190.451 198.211 191.457 196.409 191.861C196.078 191.937 192.893 192.601 191.184 190.602C190.505 189.809 190.187 188.743 190.224 187.611C189.956 187.705 189.705 187.844 189.484 188.021C187.694 189.433 187.345 193.178 188.918 195.292C189.501 196.077 190.378 196.676 196.475 197.513C201.809 198.245 204.495 198.594 205.444 197.748C205.57 197.632 205.687 197.506 205.793 197.371C204.51 197.328 203.17 197.019 202.201 196.077C200.331 194.264 200.988 191.2 199.494 190.729Z" fill="url(#paint66_linear_1_2450)"/>
</g>
<path d="M199.873 197.965L191.765 198.272L183.961 197.902L186.485 197.855L197.532 197.659L199.873 197.965Z" fill="url(#paint67_linear_1_2450)"/>
<defs>
<linearGradient id="paint0_linear_1_2450" x1="175.214" y1="68.9562" x2="214.519" y2="194.017" gradientUnits="userSpaceOnUse">
<stop stop-color="#FF9085"/>
<stop offset="1" stop-color="#FB6FBB"/>
</linearGradient>
<linearGradient id="paint1_linear_1_2450" x1="246.24" y1="86.748" x2="298.001" y2="-7.01797" gradientUnits="userSpaceOnUse">
<stop stop-color="#E38DDD"/>
<stop offset="1" stop-color="#9571F6"/>
</linearGradient>
<linearGradient id="paint2_linear_1_2450" x1="243.919" y1="147.593" x2="156.512" y2="230.136" gradientUnits="userSpaceOnUse">
<stop stop-color="#AA80F9"/>
<stop offset="1" stop-color="#6165D7"/>
</linearGradient>
<linearGradient id="paint3_linear_1_2450" x1="378855" y1="1.35532e+06" x2="556051" y2="1.5926e+06" gradientUnits="userSpaceOnUse">
<stop stop-color="#E38DDD"/>
<stop offset="1" stop-color="#9571F6"/>
</linearGradient>
<linearGradient id="paint4_linear_1_2450" x1="-153297" y1="82133.6" x2="-78941.8" y2="154529" gradientUnits="userSpaceOnUse">
<stop stop-color="#FF9085"/>
<stop offset="1" stop-color="#FB6FBB"/>
</linearGradient>
<linearGradient id="paint5_linear_1_2450" x1="66.2553" y1="73.3644" x2="121.713" y2="70.9531" gradientUnits="userSpaceOnUse">
<stop stop-color="#AB316D"/>
<stop offset="1" stop-color="#792D3D"/>
</linearGradient>
<linearGradient id="paint6_linear_1_2450" x1="60.4583" y1="163.677" x2="112.327" y2="163.677" gradientUnits="userSpaceOnUse">
<stop stop-color="#FFC444"/>
<stop offset="1" stop-color="#F36F56"/>
</linearGradient>
<linearGradient id="paint7_linear_1_2450" x1="37431.7" y1="307157" x2="56429" y2="307157" gradientUnits="userSpaceOnUse">
<stop stop-color="#FFC444"/>
<stop offset="1" stop-color="#F36F56"/>
</linearGradient>
<linearGradient id="paint8_linear_1_2450" x1="274975" y1="290705" x2="439878" y2="585677" gradientUnits="userSpaceOnUse">
<stop stop-color="#FFC444"/>
<stop offset="1" stop-color="#F36F56"/>
</linearGradient>
<linearGradient id="paint9_linear_1_2450" x1="240407" y1="258633" x2="378897" y2="568866" gradientUnits="userSpaceOnUse">
<stop stop-color="#FFC444"/>
<stop offset="1" stop-color="#F36F56"/>
</linearGradient>
<linearGradient id="paint10_linear_1_2450" x1="125347" y1="19541.1" x2="104605" y2="193174" gradientUnits="userSpaceOnUse">
<stop stop-color="#AB316D"/>
<stop offset="1" stop-color="#792D3D"/>
</linearGradient>
<linearGradient id="paint11_linear_1_2450" x1="19189.1" y1="1979.78" x2="10127.3" y2="18030.2" gradientUnits="userSpaceOnUse">
<stop stop-color="#AB316D"/>
<stop offset="1" stop-color="#792D3D"/>
</linearGradient>
<linearGradient id="paint12_linear_1_2450" x1="24360.4" y1="5085.98" x2="15298.6" y2="21136.3" gradientUnits="userSpaceOnUse">
<stop stop-color="#AB316D"/>
<stop offset="1" stop-color="#792D3D"/>
</linearGradient>
<linearGradient id="paint13_linear_1_2450" x1="50256.4" y1="191960" x2="71116.6" y2="196615" gradientUnits="userSpaceOnUse">
<stop stop-color="#AA80F9"/>
<stop offset="1" stop-color="#6165D7"/>
</linearGradient>
<linearGradient id="paint14_linear_1_2450" x1="130759" y1="191865" x2="187989" y2="287050" gradientUnits="userSpaceOnUse">
<stop stop-color="#AA80F9"/>
<stop offset="1" stop-color="#6165D7"/>
</linearGradient>
<linearGradient id="paint15_linear_1_2450" x1="80.116" y1="219.859" x2="166.428" y2="247.115" gradientUnits="userSpaceOnUse">
<stop stop-color="#444B8C"/>
<stop offset="1" stop-color="#26264F"/>
</linearGradient>
<linearGradient id="paint16_linear_1_2450" x1="36760.6" y1="103297" x2="61962.6" y2="103801" gradientUnits="userSpaceOnUse">
<stop stop-color="#FF9085"/>
<stop offset="1" stop-color="#FB6FBB"/>
</linearGradient>
<linearGradient id="paint17_linear_1_2450" x1="122173" y1="143819" x2="174561" y2="233597" gradientUnits="userSpaceOnUse">
<stop stop-color="#AA80F9"/>
<stop offset="1" stop-color="#6165D7"/>
</linearGradient>
<linearGradient id="paint18_linear_1_2450" x1="65073" y1="110477" x2="89508.5" y2="110477" gradientUnits="userSpaceOnUse">
<stop stop-color="#AA80F9"/>
<stop offset="1" stop-color="#6165D7"/>
</linearGradient>
<linearGradient id="paint19_linear_1_2450" x1="49.4986" y1="244.268" x2="92.4873" y2="244.268" gradientUnits="userSpaceOnUse">
<stop stop-color="#FCB148"/>
<stop offset="0.05" stop-color="#FDBA46"/>
<stop offset="0.14" stop-color="#FFC244"/>
<stop offset="0.32" stop-color="#FFC444"/>
<stop offset="0.48" stop-color="#FDB946"/>
<stop offset="0.78" stop-color="#F99C4D"/>
<stop offset="0.87" stop-color="#F8924F"/>
<stop offset="1" stop-color="#F8924F"/>
</linearGradient>
<linearGradient id="paint20_linear_1_2450" x1="71.1907" y1="239.425" x2="73.4571" y2="258.398" gradientUnits="userSpaceOnUse">
<stop stop-color="#FFDB44"/>
<stop offset="1" stop-color="#FEEF06"/>
</linearGradient>
<linearGradient id="paint21_linear_1_2450" x1="35274.5" y1="9127.74" x2="35276.5" y2="9347.89" gradientUnits="userSpaceOnUse">
<stop stop-color="#FFDB44"/>
<stop offset="1" stop-color="#FEEF06"/>
</linearGradient>
<linearGradient id="paint22_linear_1_2450" x1="71.7473" y1="243.795" x2="71.0537" y2="237.989" gradientUnits="userSpaceOnUse">
<stop stop-color="#F36F56"/>
<stop offset="0.31" stop-color="#F99C4C"/>
<stop offset="0.55" stop-color="#FDB946"/>
<stop offset="0.68" stop-color="#FFC444"/>
<stop offset="0.8" stop-color="#FFC244"/>
<stop offset="0.87" stop-color="#FEBA46"/>
<stop offset="0.92" stop-color="#FCAD49"/>
<stop offset="0.96" stop-color="#F99A4D"/>
<stop offset="1" stop-color="#F57E53"/>
</linearGradient>
<linearGradient id="paint23_linear_1_2450" x1="21983.3" y1="21118.8" x2="43267.4" y2="21118.8" gradientUnits="userSpaceOnUse">
<stop stop-color="#FCB148"/>
<stop offset="0.05" stop-color="#FDBA46"/>
<stop offset="0.14" stop-color="#FFC244"/>
<stop offset="0.32" stop-color="#FFC444"/>
<stop offset="0.48" stop-color="#FDB946"/>
<stop offset="0.78" stop-color="#F99C4D"/>
<stop offset="0.87" stop-color="#F8924F"/>
<stop offset="1" stop-color="#F8924F"/>
</linearGradient>
<linearGradient id="paint24_linear_1_2450" x1="32723.3" y1="15337.6" x2="32742.4" y2="16573.7" gradientUnits="userSpaceOnUse">
<stop stop-color="#FFDB44"/>
<stop offset="1" stop-color="#FEEF06"/>
</linearGradient>
<linearGradient id="paint25_linear_1_2450" x1="32696.1" y1="8961.22" x2="32698.1" y2="9181.33" gradientUnits="userSpaceOnUse">
<stop stop-color="#FFDB44"/>
<stop offset="1" stop-color="#FEEF06"/>
</linearGradient>
<linearGradient id="paint26_linear_1_2450" x1="29067" y1="2515.5" x2="29068.5" y2="2701.81" gradientUnits="userSpaceOnUse">
<stop stop-color="#F36F56"/>
<stop offset="0.31" stop-color="#F99C4C"/>
<stop offset="0.55" stop-color="#FDB946"/>
<stop offset="0.68" stop-color="#FFC444"/>
<stop offset="0.8" stop-color="#FFC244"/>
<stop offset="0.87" stop-color="#FEBA46"/>
<stop offset="0.92" stop-color="#FCAD49"/>
<stop offset="0.96" stop-color="#F99A4D"/>
<stop offset="1" stop-color="#F57E53"/>
</linearGradient>
<linearGradient id="paint27_linear_1_2450" x1="24207.1" y1="20734.2" x2="45492" y2="20734.2" gradientUnits="userSpaceOnUse">
<stop stop-color="#FCB148"/>
<stop offset="0.05" stop-color="#FDBA46"/>
<stop offset="0.14" stop-color="#FFC244"/>
<stop offset="0.32" stop-color="#FFC444"/>
<stop offset="0.48" stop-color="#FDB946"/>
<stop offset="0.78" stop-color="#F99C4D"/>
<stop offset="0.87" stop-color="#F8924F"/>
<stop offset="1" stop-color="#F8924F"/>
</linearGradient>
<linearGradient id="paint28_linear_1_2450" x1="34947.3" y1="15054.4" x2="34966.4" y2="16290.5" gradientUnits="userSpaceOnUse">
<stop stop-color="#FFDB44"/>
<stop offset="1" stop-color="#FEEF06"/>
</linearGradient>
<linearGradient id="paint29_linear_1_2450" x1="34920.6" y1="8795.34" x2="34922.6" y2="9015.45" gradientUnits="userSpaceOnUse">
<stop stop-color="#FFDB44"/>
<stop offset="1" stop-color="#FEEF06"/>
</linearGradient>
<linearGradient id="paint30_linear_1_2450" x1="26883.2" y1="2648.47" x2="26884.6" y2="2834.79" gradientUnits="userSpaceOnUse">
<stop stop-color="#F36F56"/>
<stop offset="0.31" stop-color="#F99C4C"/>
<stop offset="0.55" stop-color="#FDB946"/>
<stop offset="0.68" stop-color="#FFC444"/>
<stop offset="0.8" stop-color="#FFC244"/>
<stop offset="0.87" stop-color="#FEBA46"/>
<stop offset="0.92" stop-color="#FCAD49"/>
<stop offset="0.96" stop-color="#F99A4D"/>
<stop offset="1" stop-color="#F57E53"/>
</linearGradient>
<linearGradient id="paint31_linear_1_2450" x1="25556" y1="20353.5" x2="46840.2" y2="20353.5" gradientUnits="userSpaceOnUse">
<stop stop-color="#FCB148"/>
<stop offset="0.05" stop-color="#FDBA46"/>
<stop offset="0.14" stop-color="#FFC244"/>
<stop offset="0.32" stop-color="#FFC444"/>
<stop offset="0.48" stop-color="#FDB946"/>
<stop offset="0.78" stop-color="#F99C4D"/>
<stop offset="0.87" stop-color="#F8924F"/>
<stop offset="1" stop-color="#F8924F"/>
</linearGradient>
<linearGradient id="paint32_linear_1_2450" x1="36296.7" y1="14772.7" x2="36315.9" y2="16008.9" gradientUnits="userSpaceOnUse">
<stop stop-color="#FFDB44"/>
<stop offset="1" stop-color="#FEEF06"/>
</linearGradient>
<linearGradient id="paint33_linear_1_2450" x1="36271.3" y1="8628.83" x2="36273.3" y2="8848.97" gradientUnits="userSpaceOnUse">
<stop stop-color="#FFDB44"/>
<stop offset="1" stop-color="#FEEF06"/>
</linearGradient>
<linearGradient id="paint34_linear_1_2450" x1="25557.5" y1="2781.83" x2="25559" y2="2968.15" gradientUnits="userSpaceOnUse">
<stop stop-color="#F36F56"/>
<stop offset="0.31" stop-color="#F99C4C"/>
<stop offset="0.55" stop-color="#FDB946"/>
<stop offset="0.68" stop-color="#FFC444"/>
<stop offset="0.8" stop-color="#FFC244"/>
<stop offset="0.87" stop-color="#FEBA46"/>
<stop offset="0.92" stop-color="#FCAD49"/>
<stop offset="0.96" stop-color="#F99A4D"/>
<stop offset="1" stop-color="#F57E53"/>
</linearGradient>
<linearGradient id="paint35_linear_1_2450" x1="24560.1" y1="19937.7" x2="45844.2" y2="19937.7" gradientUnits="userSpaceOnUse">
<stop stop-color="#FCB148"/>
<stop offset="0.05" stop-color="#FDBA46"/>
<stop offset="0.14" stop-color="#FFC244"/>
<stop offset="0.32" stop-color="#FFC444"/>
<stop offset="0.48" stop-color="#FDB946"/>
<stop offset="0.78" stop-color="#F99C4D"/>
<stop offset="0.87" stop-color="#F8924F"/>
<stop offset="1" stop-color="#F8924F"/>
</linearGradient>
<linearGradient id="paint36_linear_1_2450" x1="35300" y1="14464" x2="35319.2" y2="15700" gradientUnits="userSpaceOnUse">
<stop stop-color="#FFDB44"/>
<stop offset="1" stop-color="#FEEF06"/>
</linearGradient>
<linearGradient id="paint37_linear_1_2450" x1="35274.5" y1="8449.17" x2="35276.5" y2="8669.28" gradientUnits="userSpaceOnUse">
<stop stop-color="#FFDB44"/>
<stop offset="1" stop-color="#FEEF06"/>
</linearGradient>
<linearGradient id="paint38_linear_1_2450" x1="26536" y1="2924.86" x2="26537.4" y2="3111.11" gradientUnits="userSpaceOnUse">
<stop stop-color="#F36F56"/>
<stop offset="0.31" stop-color="#F99C4C"/>
<stop offset="0.55" stop-color="#FDB946"/>
<stop offset="0.68" stop-color="#FFC444"/>
<stop offset="0.8" stop-color="#FFC244"/>
<stop offset="0.87" stop-color="#FEBA46"/>
<stop offset="0.92" stop-color="#FCAD49"/>
<stop offset="0.96" stop-color="#F99A4D"/>
<stop offset="1" stop-color="#F57E53"/>
</linearGradient>
<linearGradient id="paint39_linear_1_2450" x1="21983.3" y1="19554.6" x2="43267.4" y2="19554.6" gradientUnits="userSpaceOnUse">
<stop stop-color="#FCB148"/>
<stop offset="0.05" stop-color="#FDBA46"/>
<stop offset="0.14" stop-color="#FFC244"/>
<stop offset="0.32" stop-color="#FFC444"/>
<stop offset="0.48" stop-color="#FDB946"/>
<stop offset="0.78" stop-color="#F99C4D"/>
<stop offset="0.87" stop-color="#F8924F"/>
<stop offset="1" stop-color="#F8924F"/>
</linearGradient>
<linearGradient id="paint40_linear_1_2450" x1="32723.9" y1="14182.1" x2="32743.1" y2="15418.4" gradientUnits="userSpaceOnUse">
<stop stop-color="#FFDB44"/>
<stop offset="1" stop-color="#FEEF06"/>
</linearGradient>
<linearGradient id="paint41_linear_1_2450" x1="32696.1" y1="8282.66" x2="32698.1" y2="8502.8" gradientUnits="userSpaceOnUse">
<stop stop-color="#FFDB44"/>
<stop offset="1" stop-color="#FEEF06"/>
</linearGradient>
<linearGradient id="paint42_linear_1_2450" x1="29067" y1="3059.12" x2="29068.5" y2="3245.43" gradientUnits="userSpaceOnUse">
<stop stop-color="#F36F56"/>
<stop offset="0.31" stop-color="#F99C4C"/>
<stop offset="0.55" stop-color="#FDB946"/>
<stop offset="0.68" stop-color="#FFC444"/>
<stop offset="0.8" stop-color="#FFC244"/>
<stop offset="0.87" stop-color="#FEBA46"/>
<stop offset="0.92" stop-color="#FCAD49"/>
<stop offset="0.96" stop-color="#F99A4D"/>
<stop offset="1" stop-color="#F57E53"/>
</linearGradient>
<linearGradient id="paint43_linear_1_2450" x1="24207.1" y1="19174.7" x2="45492" y2="19174.7" gradientUnits="userSpaceOnUse">
<stop stop-color="#FCB148"/>
<stop offset="0.05" stop-color="#FDBA46"/>
<stop offset="0.14" stop-color="#FFC244"/>
<stop offset="0.32" stop-color="#FFC444"/>
<stop offset="0.48" stop-color="#FDB946"/>
<stop offset="0.78" stop-color="#F99C4D"/>
<stop offset="0.87" stop-color="#F8924F"/>
<stop offset="1" stop-color="#F8924F"/>
</linearGradient>
<linearGradient id="paint44_linear_1_2450" x1="34947.3" y1="13898.9" x2="34966.5" y2="15135.2" gradientUnits="userSpaceOnUse">
<stop stop-color="#FFDB44"/>
<stop offset="1" stop-color="#FEEF06"/>
</linearGradient>
<linearGradient id="paint45_linear_1_2450" x1="34920.6" y1="8116.71" x2="34922.6" y2="8336.82" gradientUnits="userSpaceOnUse">
<stop stop-color="#FFDB44"/>
<stop offset="1" stop-color="#FEEF06"/>
</linearGradient>
<linearGradient id="paint46_linear_1_2450" x1="26883.2" y1="3192.09" x2="26884.6" y2="3378.4" gradientUnits="userSpaceOnUse">
<stop stop-color="#F36F56"/>
<stop offset="0.31" stop-color="#F99C4C"/>
<stop offset="0.55" stop-color="#FDB946"/>
<stop offset="0.68" stop-color="#FFC444"/>
<stop offset="0.8" stop-color="#FFC244"/>
<stop offset="0.87" stop-color="#FEBA46"/>
<stop offset="0.92" stop-color="#FCAD49"/>
<stop offset="0.96" stop-color="#F99A4D"/>
<stop offset="1" stop-color="#F57E53"/>
</linearGradient>
<linearGradient id="paint47_linear_1_2450" x1="23051.8" y1="18789.3" x2="44337.2" y2="18789.3" gradientUnits="userSpaceOnUse">
<stop stop-color="#FCB148"/>
<stop offset="0.05" stop-color="#FDBA46"/>
<stop offset="0.14" stop-color="#FFC244"/>
<stop offset="0.32" stop-color="#FFC444"/>
<stop offset="0.48" stop-color="#FDB946"/>
<stop offset="0.78" stop-color="#F99C4D"/>
<stop offset="0.87" stop-color="#F8924F"/>
<stop offset="1" stop-color="#F8924F"/>
</linearGradient>
<linearGradient id="paint48_linear_1_2450" x1="33791" y1="13614.8" x2="33810.2" y2="14851.1" gradientUnits="userSpaceOnUse">
<stop stop-color="#FFDB44"/>
<stop offset="1" stop-color="#FEEF06"/>
</linearGradient>
<linearGradient id="paint49_linear_1_2450" x1="33764" y1="7950.2" x2="33766" y2="8170.31" gradientUnits="userSpaceOnUse">
<stop stop-color="#FFDB44"/>
<stop offset="1" stop-color="#FEEF06"/>
</linearGradient>
<linearGradient id="paint50_linear_1_2450" x1="28018.7" y1="3325.49" x2="28020.1" y2="3511.8" gradientUnits="userSpaceOnUse">
<stop stop-color="#F36F56"/>
<stop offset="0.31" stop-color="#F99C4C"/>
<stop offset="0.55" stop-color="#FDB946"/>
<stop offset="0.68" stop-color="#FFC444"/>
<stop offset="0.8" stop-color="#FFC244"/>
<stop offset="0.87" stop-color="#FEBA46"/>
<stop offset="0.92" stop-color="#FCAD49"/>
<stop offset="0.96" stop-color="#F99A4D"/>
<stop offset="1" stop-color="#F57E53"/>
</linearGradient>
<linearGradient id="paint51_linear_1_2450" x1="-42462.5" y1="88461.9" x2="-34131.6" y2="100097" gradientUnits="userSpaceOnUse">
<stop stop-color="#FCB148"/>
<stop offset="0.05" stop-color="#FDBA46"/>
<stop offset="0.14" stop-color="#FFC244"/>
<stop offset="0.32" stop-color="#FFC444"/>
<stop offset="0.48" stop-color="#FDB946"/>
<stop offset="0.78" stop-color="#F99C4D"/>
<stop offset="0.87" stop-color="#F8924F"/>
<stop offset="1" stop-color="#F8924F"/>
</linearGradient>
<linearGradient id="paint52_linear_1_2450" x1="-35711.6" y1="84054.2" x2="-41127.2" y2="89474.6" gradientUnits="userSpaceOnUse">
<stop stop-color="#FFDB44"/>
<stop offset="1" stop-color="#FEEF06"/>
</linearGradient>
<linearGradient id="paint53_linear_1_2450" x1="-35522.4" y1="83971" x2="-37188.8" y2="85638.7" gradientUnits="userSpaceOnUse">
<stop stop-color="#FFDB44"/>
<stop offset="1" stop-color="#FEEF06"/>
</linearGradient>
<linearGradient id="paint54_linear_1_2450" x1="43115.7" y1="-17705.5" x2="44741.8" y2="-19339.8" gradientUnits="userSpaceOnUse">
<stop stop-color="#F36F56"/>
<stop offset="0.31" stop-color="#F99C4C"/>
<stop offset="0.55" stop-color="#FDB946"/>
<stop offset="0.68" stop-color="#FFC444"/>
<stop offset="0.8" stop-color="#FFC244"/>
<stop offset="0.87" stop-color="#FEBA46"/>
<stop offset="0.92" stop-color="#FCAD49"/>
<stop offset="0.96" stop-color="#F99A4D"/>
<stop offset="1" stop-color="#F57E53"/>
</linearGradient>
<linearGradient id="paint55_linear_1_2450" x1="53395.2" y1="92420.3" x2="62672.4" y2="101235" gradientUnits="userSpaceOnUse">
<stop stop-color="#AA80F9"/>
<stop offset="1" stop-color="#6165D7"/>
</linearGradient>
<linearGradient id="paint56_linear_1_2450" x1="76907.1" y1="99068.7" x2="62972.9" y2="115465" gradientUnits="userSpaceOnUse">
<stop stop-color="#AA80F9"/>
<stop offset="1" stop-color="#6165D7"/>
</linearGradient>
<linearGradient id="paint57_linear_1_2450" x1="123205" y1="3850.35" x2="123203" y2="4145.94" gradientUnits="userSpaceOnUse">
<stop stop-color="#E38DDD"/>
<stop offset="1" stop-color="#9571F6"/>
</linearGradient>
<linearGradient id="paint58_linear_1_2450" x1="63660.6" y1="97541.2" x2="49711.6" y2="111299" gradientUnits="userSpaceOnUse">
<stop stop-color="#E38DDD"/>
<stop offset="1" stop-color="#9571F6"/>
</linearGradient>
<linearGradient id="paint59_linear_1_2450" x1="23069.8" y1="98137.1" x2="35917.1" y2="112717" gradientUnits="userSpaceOnUse">
<stop stop-color="#AB316D"/>
<stop offset="1" stop-color="#792D3D"/>
</linearGradient>
<linearGradient id="paint60_linear_1_2450" x1="22201.4" y1="105825" x2="24125.6" y2="105764" gradientUnits="userSpaceOnUse">
<stop stop-color="#AB316D"/>
<stop offset="1" stop-color="#792D3D"/>
</linearGradient>
<linearGradient id="paint61_linear_1_2450" x1="18930.5" y1="104513" x2="20692.3" y2="104458" gradientUnits="userSpaceOnUse">
<stop stop-color="#AB316D"/>
<stop offset="1" stop-color="#792D3D"/>
</linearGradient>
<linearGradient id="paint62_linear_1_2450" x1="74839.9" y1="3656.1" x2="76143.4" y2="-525.533" gradientUnits="userSpaceOnUse">
<stop stop-color="#AB316D"/>
<stop offset="1" stop-color="#792D3D"/>
</linearGradient>
<linearGradient id="paint63_linear_1_2450" x1="40623.1" y1="31240.9" x2="39075.7" y2="33050.6" gradientUnits="userSpaceOnUse">
<stop stop-color="#AB316D"/>
<stop offset="1" stop-color="#792D3D"/>
</linearGradient>
<linearGradient id="paint64_linear_1_2450" x1="40759" y1="15263.5" x2="40226.4" y2="16552.1" gradientUnits="userSpaceOnUse">
<stop stop-color="#AB316D"/>
<stop offset="1" stop-color="#792D3D"/>
</linearGradient>
<linearGradient id="paint65_linear_1_2450" x1="48650" y1="40335.7" x2="54843" y2="39248.8" gradientUnits="userSpaceOnUse">
<stop stop-color="#AB316D"/>
<stop offset="1" stop-color="#792D3D"/>
</linearGradient>
<linearGradient id="paint66_linear_1_2450" x1="46340.4" y1="27409.2" x2="52057.5" y2="25987.6" gradientUnits="userSpaceOnUse">
<stop stop-color="#AB316D"/>
<stop offset="1" stop-color="#792D3D"/>
</linearGradient>
<linearGradient id="paint67_linear_1_2450" x1="40203.8" y1="1807.42" x2="40496.4" y2="683.973" gradientUnits="userSpaceOnUse">
<stop stop-color="#AB316D"/>
<stop offset="1" stop-color="#792D3D"/>
</linearGradient>
</defs>
</svg>
