<svg width="52" height="52" viewBox="0 0 52 52" fill="none" xmlns="http://www.w3.org/2000/svg">
<rect width="52" height="52" fill="white"/>
<path d="M17.6129 37.7418C23.1713 37.7418 27.6774 33.2358 27.6774 27.6773C27.6774 22.1188 23.1713 17.6128 17.6129 17.6128C12.0544 17.6128 7.54834 22.1188 7.54834 27.6773C7.54834 33.2358 12.0544 37.7418 17.6129 37.7418Z" fill="#41B7E9"/>
<path d="M46.1288 36.9031H37.7417C36.3545 36.9031 35.2256 35.7742 35.2256 34.387V29.3548C35.2256 27.9675 36.3545 26.8386 37.7417 26.8386H46.1288C47.516 26.8386 48.6449 27.9675 48.6449 29.3548V34.387C48.6449 35.7742 47.516 36.9031 46.1288 36.9031Z" fill="#41B7E9"/>
<path d="M35.2256 39.4194H48.6449V43.613H35.2256V39.4194Z" fill="#41B7E9"/>
<path d="M47.8064 10.0645H34.2101C33.6994 9.06394 33.0192 8.18329 32.2148 7.44858L44.0935 3.98303C44.5514 4.61542 45.2903 5.03226 46.129 5.03226C47.5163 5.03226 48.6452 3.90335 48.6452 2.51613C48.6452 1.1289 47.5163 0 46.129 0C44.7913 0 43.7043 1.05258 43.6272 2.37187L30.4938 6.2031C29.1468 5.44994 27.607 5.03226 26 5.03226C24.393 5.03226 22.8532 5.44994 21.5062 6.2031L8.37284 2.37187C8.29568 1.05258 7.20871 0 5.87097 0C4.48374 0 3.35484 1.1289 3.35484 2.51613C3.35484 3.90335 4.48374 5.03226 5.87097 5.03226C6.70968 5.03226 7.44858 4.61542 7.90652 3.98303L19.7852 7.44858C18.98 8.18329 18.3006 9.06477 17.7899 10.0645H4.19355C1.88123 10.0645 0 11.9457 0 14.2581V44.4516C0 46.7639 1.88123 48.6452 4.19355 48.6452H6.70968V49.4839C6.70968 50.8711 7.83858 52 9.22581 52H10.9032C12.2905 52 13.4194 50.8711 13.4194 49.4839V48.6452H31.9557C32.3457 50.5566 34.039 52 36.0645 52H47.8064C50.1188 52 52 50.1188 52 47.8064V35.2258V24.3226V14.2581C52 11.9457 50.1188 10.0645 47.8064 10.0645ZM46.129 1.67742C46.592 1.67742 46.9677 2.05316 46.9677 2.51613C46.9677 2.9791 46.592 3.35484 46.129 3.35484C45.6661 3.35484 45.2903 2.9791 45.2903 2.51613C45.2903 2.05316 45.6661 1.67742 46.129 1.67742ZM5.87097 3.35484C5.408 3.35484 5.03226 2.9791 5.03226 2.51613C5.03226 2.05316 5.408 1.67742 5.87097 1.67742C6.33394 1.67742 6.70968 2.05316 6.70968 2.51613C6.70968 2.9791 6.33394 3.35484 5.87097 3.35484ZM26 6.70968C28.543 6.70968 30.8712 7.99794 32.2576 10.0645H19.7424C21.1288 7.99794 23.457 6.70968 26 6.70968ZM1.67742 44.4516V14.2581C1.67742 12.8708 2.80632 11.7419 4.19355 11.7419H47.8064C49.1937 11.7419 50.3226 12.8708 50.3226 14.2581V20.9895C49.8328 20.6188 49.2683 20.3412 48.6452 20.2146V15.0968C48.6452 14.1717 47.8928 13.4194 46.9677 13.4194H5.03226C4.10716 13.4194 3.35484 14.1717 3.35484 15.0968V40.2581C3.35484 41.1832 4.10716 41.9355 5.03226 41.9355H31.871V46.9677H4.19355C2.80632 46.9677 1.67742 45.8388 1.67742 44.4516ZM46.9677 20.129H36.0645C33.7522 20.129 31.871 22.0103 31.871 24.3226V40.2581H5.03226V15.0968H46.9677V20.129ZM36.0645 21.8065H47.8064C48.8984 21.8065 49.821 22.5101 50.1683 23.4839H33.7027C34.0499 22.5101 34.9725 21.8065 36.0645 21.8065ZM11.7419 49.4839C11.7419 49.9468 11.3662 50.3226 10.9032 50.3226H9.22581C8.76284 50.3226 8.3871 49.9468 8.3871 49.4839V48.6452H11.7419V49.4839ZM47.8064 50.3226H36.0645C34.6773 50.3226 33.5484 49.1937 33.5484 47.8064V46.9677H50.3226V47.8064C50.3226 49.1937 49.1937 50.3226 47.8064 50.3226ZM50.3226 45.2903H33.5484V25.1613H50.3226V35.2258V45.2903Z" fill="#1F2428"/>
<path d="M17.6127 38.5806C23.6246 38.5806 28.5159 33.6893 28.5159 27.6774C28.5159 21.6655 23.6246 16.7742 17.6127 16.7742C11.6008 16.7742 6.70947 21.6655 6.70947 27.6774C6.70947 33.6893 11.6008 38.5806 17.6127 38.5806ZM15.7675 33.6104C16.3697 33.5718 16.9845 33.5484 17.6127 33.5484C18.2409 33.5484 18.8557 33.5718 19.4579 33.6104C18.8993 35.7626 18.1168 36.9032 17.6127 36.9032C17.1086 36.9032 16.3261 35.7626 15.7675 33.6104ZM15.0655 36.5375C13.6162 36.1198 12.3146 35.3575 11.2511 34.3426C12.0923 34.0969 13.0484 33.904 14.0859 33.7698C14.3417 34.8249 14.6663 35.7718 15.0655 36.5375ZM20.1146 28.5161C20.0793 29.8035 19.967 30.9492 19.8034 31.9515C19.0897 31.8995 18.3575 31.8709 17.6127 31.8709C16.8679 31.8709 16.1357 31.8995 15.422 31.9515C15.2584 30.9492 15.1461 29.8035 15.1108 28.5161H20.1146ZM15.1108 26.8387C15.1461 25.5513 15.2584 24.4056 15.422 23.4033C16.1357 23.4553 16.8679 23.4838 17.6127 23.4838C18.3575 23.4838 19.0897 23.4553 19.8034 23.4033C19.967 24.4056 20.0793 25.5513 20.1146 26.8387H15.1108ZM21.1395 33.7706C22.177 33.9048 23.1331 34.0977 23.9743 34.3435C22.9117 35.3583 21.61 36.1207 20.1599 36.5384C20.5591 35.7718 20.8837 34.8249 21.1395 33.7706ZM21.4649 32.1242C21.6477 30.976 21.7584 29.754 21.792 28.5161H26.7957C26.6464 30.1608 26.0635 31.6789 25.1636 32.9621C24.106 32.5922 22.8462 32.3096 21.4649 32.1242ZM21.792 26.8387C21.7584 25.6008 21.6469 24.3788 21.4649 23.2306C22.8454 23.0452 24.106 22.7626 25.1636 22.3927C26.0644 23.6751 26.6473 25.194 26.7957 26.8387H21.792ZM21.1395 21.5842C20.8845 20.5299 20.5591 19.583 20.1599 18.8173C21.6092 19.2349 22.9108 19.9973 23.9743 21.0122C23.1331 21.2571 22.1761 21.4508 21.1395 21.5842ZM19.4579 21.7444C18.8557 21.7829 18.2409 21.8064 17.6127 21.8064C16.9845 21.8064 16.3697 21.7829 15.7675 21.7444C16.3261 19.5922 17.1086 18.4516 17.6127 18.4516C18.1168 18.4516 18.8993 19.5922 19.4579 21.7444ZM14.0859 21.5842C13.0484 21.45 12.0923 21.2571 11.2511 21.0113C12.3137 19.9965 13.6154 19.2341 15.0655 18.8164C14.6663 19.583 14.3417 20.5299 14.0859 21.5842ZM13.7605 23.2306C13.5777 24.3788 13.467 25.6008 13.4334 26.8387H8.42967C8.57896 25.194 9.16186 23.6759 10.0618 22.3927C11.1194 22.7626 12.3791 23.0452 13.7605 23.2306ZM13.4334 28.5161C13.467 29.754 13.5785 30.976 13.7605 32.1242C12.38 32.3096 11.1194 32.5922 10.0618 32.9621C9.16102 31.6797 8.57812 30.1608 8.42967 28.5161H13.4334Z" fill="#1F2428"/>
<path d="M6.70947 43.6128H8.38689V45.2902H6.70947V43.6128Z" fill="#1F2428"/>
<path d="M10.0645 43.6128H11.7419V45.2902H10.0645V43.6128Z" fill="#1F2428"/>
<path d="M13.4194 43.6128H15.0969V45.2902H13.4194V43.6128Z" fill="#1F2428"/>
<path d="M35.2256 41.9355H45.2901V43.613H35.2256V41.9355Z" fill="#1F2428"/>
<path d="M46.9678 41.9355H48.6452V43.613H46.9678V41.9355Z" fill="#1F2428"/>
<path d="M35.2256 38.5806H48.6449V40.258H35.2256V38.5806Z" fill="#1F2428"/>
</svg>
