<svg width="52" height="52" viewBox="0 0 52 52" fill="none" xmlns="http://www.w3.org/2000/svg">
<rect width="52" height="52" fill="white"/>
<path d="M33.8739 17.1791H17.528L15.5557 4.35593L21.2373 6.25035L25.701 0L30.1655 6.25035L35.8471 4.35593L33.8739 17.1791Z" fill="#41B7E9"/>
<path d="M31.0899 17.1792H29.0172L25.701 21.6006L22.3847 17.1792H20.312L25.701 24.3647L31.0899 17.1792Z" fill="#1F2428"/>
<path d="M24.8721 47.0256H26.5302V48.6838H24.8721V47.0256Z" fill="#1F2428"/>
<path d="M29.8467 47.0256H31.5048V48.6838H29.8467V47.0256Z" fill="#1F2428"/>
<path d="M19.8975 47.0256H21.5556V48.6838H19.8975V47.0256Z" fill="#1F2428"/>
<path d="M24.8721 10.5466H26.5302V12.2048H24.8721V10.5466Z" fill="#1F2428"/>
<path d="M21.5557 10.5466H23.2138V12.2048H21.5557V10.5466Z" fill="#1F2428"/>
<path d="M28.1885 10.5466H29.8466V12.2048H28.1885V10.5466Z" fill="#1F2428"/>
<path d="M51.4022 12.2504C51.4022 10.9305 50.8882 9.68941 49.9547 8.75588L49.0883 7.8895L34.2198 14.9324L33.8741 17.1792H32.9331L35.2752 18.5845C36.0172 19.0297 36.479 19.8447 36.479 20.711C36.479 21.3983 36.1897 22.0608 35.6864 22.5275L25.7011 31.7998L15.7158 22.5275C15.2126 22.0608 14.9232 21.3983 14.9232 20.711C14.9232 19.8447 15.385 19.0305 16.127 18.5845L18.4692 17.1792H17.5282L17.3358 15.9257L17.1833 14.9316L2.31393 7.88867L1.44755 8.75588C0.514022 9.68941 0 10.9305 0 12.2504C0 14.0603 0.986591 15.7225 2.57592 16.5889L2.95977 16.7978C2.13734 17.6037 1.65814 18.7047 1.65814 19.8803C1.65814 21.589 2.66711 23.141 4.22825 23.835L4.78953 24.0845C3.85848 24.8854 3.31627 26.0536 3.31627 27.3005C3.31627 29.0482 4.36505 30.5969 5.98753 31.2452L15.7548 35.1518L21.6379 43.7094H19.2651C18.3166 43.7094 17.4643 44.2359 17.0398 45.084L15.1529 48.8587C15.0028 49.1589 14.9232 49.4946 14.9232 49.8296C14.9232 51.0268 15.8974 52.0001 17.0937 52.0001H34.3085C35.5049 52.0001 36.479 51.0268 36.479 49.8296C36.479 49.4946 36.3994 49.1589 36.2502 48.8587L34.3632 45.084C33.9387 44.2359 33.0856 43.7094 32.138 43.7094H29.7644L35.6475 35.1518L45.4147 31.2444C47.0372 30.596 48.086 29.0473 48.086 27.3005C48.086 26.0536 47.5438 24.8862 46.6135 24.0845L47.1748 23.835C48.736 23.141 49.7449 21.589 49.7449 19.8803C49.7449 18.7047 49.2657 17.6037 48.4433 16.7978L48.8263 16.5889C50.4157 15.7234 51.4022 14.0603 51.4022 12.2504ZM4.97441 27.3005C4.97441 26.4324 5.40636 25.6266 6.12847 25.1449L6.54715 24.8655L9.61222 26.2277L10.2863 24.713L4.90145 22.3194C3.9389 21.8916 3.31627 20.9341 3.31627 19.8803C3.31627 18.9858 3.76065 18.1559 4.50516 17.6601L4.52091 17.6501L9.55253 20.3952L10.3459 18.9393L3.37016 15.1339C2.31393 14.5577 1.65814 13.4534 1.65814 12.2504C1.65814 11.3732 1.99971 10.5483 2.61986 9.92818L2.66048 9.88839L16.4844 16.4364L15.2739 17.1626C14.0353 17.9055 13.2651 19.266 13.2651 20.711C13.2651 21.8576 13.7468 22.9636 14.5875 23.7429L15.909 24.97L14.8478 26.0303C13.8272 27.0509 13.2651 28.4081 13.2651 29.8524C13.2651 30.8671 13.5578 31.8429 14.0917 32.701L6.6027 29.7056C5.61362 29.3093 4.97441 28.3658 4.97441 27.3005ZM15.5823 31.9756C15.1512 31.3472 14.9232 30.6134 14.9232 29.8524C14.9232 28.8508 15.3129 27.9107 16.0201 27.2035L17.1244 26.0992L24.8721 33.293V43.7094H23.65L15.5823 31.9756ZM32.8792 45.826L34.7662 49.6008C34.8026 49.6712 34.8209 49.7508 34.8209 49.8296C34.8209 50.1123 34.5912 50.3419 34.3085 50.3419H17.0937C16.811 50.3419 16.5814 50.1123 16.5814 49.8296C16.5814 49.7508 16.5996 49.6712 16.6353 49.6008L18.5222 45.826C18.6648 45.5433 18.9484 45.3675 19.2642 45.3675H32.1372C32.4539 45.3675 32.7374 45.5433 32.8792 45.826ZM26.5302 43.7094V33.293L34.2778 26.0992L35.3822 27.2035C36.0893 27.9107 36.479 28.8517 36.479 29.8524C36.479 30.6134 36.251 31.3472 35.8199 31.9748L27.7522 43.7094H26.5302ZM48.0329 15.1331L41.0571 18.9385L41.8505 20.3943L46.8822 17.6493L46.8979 17.6592C47.6416 18.155 48.0868 18.9858 48.0868 19.8795C48.0868 20.9332 47.4642 21.8908 46.5016 22.3186L41.1176 24.7113L41.7917 26.226L44.8567 24.8638L45.2754 25.1432C45.9975 25.6249 46.4295 26.4308 46.4295 27.2988C46.4295 28.3642 45.7903 29.3085 44.8012 29.7039L37.3122 32.6994C37.8445 31.8429 38.1371 30.8671 38.1371 29.8524C38.1371 28.4081 37.575 27.0509 36.5545 26.0312L35.4932 24.9708L36.8148 23.7438C37.6555 22.9636 38.1371 21.8576 38.1371 20.711C38.1371 19.266 37.3669 17.9063 36.1283 17.1626L34.9179 16.4364L48.7418 9.88839L48.7824 9.92818C49.4025 10.5483 49.7441 11.3732 49.7441 12.2504C49.7441 13.4534 49.0883 14.5577 48.0329 15.1331Z" fill="#1F2428"/>
</svg>
