<svg width="52" height="52" viewBox="0 0 52 52" fill="none" xmlns="http://www.w3.org/2000/svg">
<rect width="52" height="52" fill="white"/>
<path d="M45.671 41.0969L44.4565 27.7371C42.6759 28.9448 41.3717 30.7682 40.8392 32.8976C40.4978 34.2664 39.2683 35.2259 37.8584 35.2259H25.9999H14.1414C12.7315 35.2259 11.5019 34.2664 11.1597 32.8976C10.6272 30.7682 9.32297 28.9448 7.54239 27.7371L5.92368 45.5404C5.88845 45.9253 5.96142 46.312 6.13419 46.6575C6.48729 47.362 7.2069 47.8065 7.99361 47.8065H25.9999H44.0061C44.7928 47.8065 45.5125 47.362 45.8647 46.6575C46.0375 46.312 46.1105 45.9245 46.0752 45.5404L45.8236 42.7743L45.671 41.0969Z" fill="#41B7E9"/>
<path d="M51.7643 42.7021L45.1343 20.6012C44.5975 18.8139 42.983 17.6129 41.1161 17.6129H38.5806V12.5806C38.5806 5.64284 32.937 0 26 0C19.063 0 13.4194 5.64284 13.4194 12.5806V17.6129H10.8839C9.01697 17.6129 7.40329 18.8139 6.86652 20.6012L0.235677 42.7029C0.0796774 43.2263 0 43.7681 0 44.3124C0 45.0748 0.152645 45.817 0.452903 46.5199L2.80213 52H49.1979L51.5479 46.5199C51.8474 45.817 52 45.0748 52 44.3124C52 43.7681 51.9203 43.2263 51.7643 42.7021ZM8.47264 21.0835C8.79471 20.0108 9.76342 19.2903 10.8839 19.2903H13.4194V24.3226H15.0968V12.5806C15.0968 6.56877 19.9881 1.67742 26 1.67742C32.0119 1.67742 36.9032 6.56877 36.9032 12.5806V24.3226H38.5806V19.2903H41.1161C42.2366 19.2903 43.2044 20.0108 43.5265 21.0835L45.1184 26.39C42.5964 27.643 40.7135 29.9428 40.0266 32.6946C39.7775 33.691 38.8851 34.3871 37.8585 34.3871H14.1415C13.1141 34.3871 12.2225 33.691 11.9726 32.6946C11.2857 29.9419 9.40277 27.6422 6.88077 26.3892L8.47264 21.0835ZM50.0055 45.8598L48.0924 50.3226H3.90755L1.99529 45.8598C1.78394 45.3675 1.67742 44.8466 1.67742 44.3124C1.67742 43.9308 1.73277 43.5508 1.84265 43.1835L6.39432 28.0112C6.48574 28.0607 6.57129 28.1203 6.66103 28.1739L5.08845 45.4656C5.04065 46.0057 5.14297 46.5484 5.38535 47.0332C5.88355 48.0279 6.88245 48.6452 7.99374 48.6452H44.0063C45.1175 48.6452 46.1173 48.0279 46.6146 47.0332C46.857 46.5484 46.9594 46.0057 46.9115 45.4639L46.6599 42.697L44.9892 42.8497L45.2408 45.6149C45.261 45.8455 45.2182 46.077 45.115 46.2834C44.9028 46.7061 44.4785 46.9677 44.0063 46.9677H7.99374C7.52071 46.9677 7.09716 46.7061 6.88581 46.2834C6.78265 46.077 6.73903 45.8464 6.76 45.6166L8.23445 29.4001C9.2451 30.4125 9.99239 31.6814 10.3463 33.1022C10.7825 34.8459 12.3433 36.0645 14.1415 36.0645H37.8577C39.6567 36.0645 41.2167 34.8459 41.6528 33.1014C42.0076 31.6814 42.7541 30.4125 43.7647 29.4001L44.8349 41.1731L46.5056 41.0205L45.3381 28.1739C45.4279 28.1211 45.5126 28.0607 45.6048 28.0112L50.1565 43.1826C50.2672 43.5508 50.3226 43.9308 50.3226 44.3124C50.3226 44.8466 50.2161 45.3675 50.0055 45.8598Z" fill="#1F2428"/>
<path d="M18.4518 19.2852L25.8954 19.2382H33.5486V24.3225H35.226V12.5805C35.226 7.49377 31.087 3.35474 26.0002 3.35474C20.9134 3.35474 16.7744 7.49377 16.7744 12.5805V24.3225H18.4518V19.2852ZM26.0002 5.03216C30.1627 5.03216 33.5486 8.41803 33.5486 12.5805V17.5608H25.8903L18.4518 17.6078V12.5805C18.4518 8.41803 21.8377 5.03216 26.0002 5.03216Z" fill="#1F2428"/>
<path d="M29.3547 31.0322H22.645V32.7096H29.3547V31.0322Z" fill="#1F2428"/>
</svg>
