<svg width="60" height="60" viewBox="0 0 60 60" fill="none" xmlns="http://www.w3.org/2000/svg">
<rect width="60" height="60" fill="white"/>
<path d="M47 36H34V23.2258H47V36Z" fill="#41B7E9"/>
<path d="M18 28H5V17H18V28Z" fill="#41B7E9"/>
<path d="M13.5483 4.83875H27.0967V12.5807H13.5483V4.83875Z" fill="#41B7E9"/>
<path d="M3.87109 31.9354H19.355V39.6774H3.87109V31.9354Z" fill="#41B7E9"/>
<path d="M32.9033 37.7419H48.3872V22.2581H32.9033V37.7419ZM34.8388 24.1935H46.4517V35.8064H34.8388V24.1935Z" fill="#1F2428"/>
<path d="M60 30C60 28.6819 59.5577 27.4239 58.7448 26.399C59.1048 25.1429 59.0313 23.8113 58.5271 22.5919C58.0229 21.3735 57.1326 20.3816 55.9897 19.7477C55.8416 18.4481 55.2639 17.2461 54.3319 16.3132C53.4 15.3813 52.1981 14.8045 50.8984 14.6555C50.3245 13.6229 49.4487 12.8139 48.3881 12.2913V0H10.2445L0 10.2445V60H48.3871V47.7087C49.4477 47.1861 50.3245 46.3771 50.8974 45.3445C52.1961 45.1955 53.3981 44.6187 54.33 43.6858C55.2629 42.7539 55.8406 41.5529 55.9887 40.2523C57.1316 39.6184 58.0219 38.6255 58.5261 37.4081C59.0303 36.1887 59.1039 34.8571 58.7439 33.601C59.5577 32.5761 60 31.3181 60 30ZM9.67742 3.30387V9.67742H3.30387L9.67742 3.30387ZM1.93548 58.0645V11.6129H11.6129V1.93548H46.4516V11.7261C45.7152 11.6468 44.9681 11.6932 44.2452 11.9013C42.1984 10.2735 39.0929 10.2735 37.0461 11.9013C35.7881 11.5403 34.4565 11.6129 33.239 12.119C32.0206 12.6242 31.0277 13.5135 30.3939 14.6565C29.0942 14.8055 27.8923 15.3823 26.9603 16.3142C26.0274 17.2471 25.4506 18.449 25.3026 19.7487C24.1597 20.3826 23.2694 21.3755 22.7652 22.5929C22.261 23.8123 22.1874 25.1439 22.5474 26.4C21.7326 27.4239 21.2903 28.6819 21.2903 30C21.2903 31.3181 21.7326 32.5761 22.5455 33.601C22.1855 34.8571 22.259 36.1887 22.7632 37.4081C23.2674 38.6264 24.1577 39.6184 25.3006 40.2523C25.4487 41.5529 26.0265 42.7539 26.9584 43.6858C27.8913 44.6187 29.0932 45.1955 30.3919 45.3445C31.0268 46.4874 32.0187 47.3768 33.2371 47.8819C34.4555 48.3861 35.7871 48.4606 37.0442 48.0997C38.069 48.9126 39.3261 49.3548 40.6452 49.3548C41.9642 49.3548 43.2213 48.9126 44.2452 48.0987C44.9681 48.3058 45.7152 48.3523 46.4516 48.2729V58.0645H1.93548ZM56.9555 32.7058L56.5132 33.1577L56.7494 33.7432C57.1306 34.6906 57.1258 35.729 56.7377 36.6668C56.3497 37.6035 55.6181 38.34 54.6784 38.7416L54.0968 38.9903L54.09 39.6213C54.0794 40.6442 53.6787 41.6003 52.9606 42.3174C52.2426 43.0345 51.2855 43.4352 50.2635 43.4468L49.6316 43.4535L49.3839 44.0352C48.9832 44.9748 48.2458 45.7065 47.309 46.0945C46.3723 46.4816 45.3329 46.4874 44.3855 46.1061L43.799 45.87L43.3471 46.3123C41.8868 47.7435 39.3977 47.7435 37.9374 46.3123L37.4855 45.87L36.899 46.1061C35.9516 46.4884 34.9132 46.4845 33.9755 46.0945C33.0387 45.7065 32.3013 44.9748 31.9006 44.0352L31.6529 43.4535L31.021 43.4468C29.999 43.4352 29.0419 43.0345 28.3239 42.3174C27.6068 41.6003 27.2061 40.6442 27.1955 39.6213L27.1887 38.9903L26.6071 38.7416C25.6674 38.341 24.9358 37.6035 24.5477 36.6668C24.1597 35.729 24.1558 34.6906 24.5361 33.7432L24.7723 33.1577L24.33 32.7058C23.6197 31.9752 23.2258 31.0142 23.2258 30C23.2258 28.9858 23.6197 28.0248 24.3348 27.2942L24.7771 26.8423L24.541 26.2568C24.1597 25.3094 24.1645 24.271 24.5526 23.3332C24.9406 22.3965 25.6723 21.66 26.6119 21.2584L27.1935 21.0097L27.2003 20.3787C27.211 19.3568 27.6116 18.3987 28.3297 17.6816C29.0468 16.9655 30.0039 16.5648 31.0268 16.5532L31.6587 16.5465L31.9065 15.9648C32.3071 15.0252 33.0445 14.2935 33.9813 13.9055C34.9181 13.5184 35.9574 13.5126 36.9048 13.8939L37.4913 14.13L37.9432 13.6877C39.4035 12.2565 41.8926 12.2565 43.3529 13.6877L43.8048 14.13L44.3913 13.8939C45.3387 13.5116 46.3771 13.5155 47.3148 13.9055C48.2516 14.2935 48.989 15.0252 49.3897 15.9648L49.6374 16.5465L50.2694 16.5532C51.2913 16.5648 52.2494 16.9655 52.9664 17.6816C53.6835 18.3987 54.0852 19.3568 54.0958 20.3787L54.1026 21.0097L54.6842 21.2584C55.6239 21.659 56.3555 22.3965 56.7435 23.3332C57.1316 24.271 57.1355 25.3094 56.7552 26.2568L56.519 26.8423L56.9613 27.2942C57.6706 28.0248 58.0645 28.9858 58.0645 30C58.0645 31.0142 57.6706 31.9752 56.9555 32.7058Z" fill="#1F2428"/>
<path d="M40.6451 16.4517C33.1741 16.4517 27.0967 22.5291 27.0967 30C27.0967 37.471 33.1741 43.5484 40.6451 43.5484C48.116 43.5484 54.1935 37.471 54.1935 30C54.1935 22.5291 48.116 16.4517 40.6451 16.4517ZM40.6451 41.6129C34.2415 41.6129 29.0322 36.4036 29.0322 30C29.0322 23.5965 34.2415 18.3871 40.6451 18.3871C47.0486 18.3871 52.258 23.5965 52.258 30C52.258 36.4036 47.0486 41.6129 40.6451 41.6129Z" fill="#1F2428"/>
<path d="M28.0646 53.2258V50.3226C28.0646 48.722 26.7621 47.4194 25.1614 47.4194C23.5608 47.4194 22.2582 48.722 22.2582 50.3226V51.511C22.2582 51.9223 21.9234 52.2581 21.5111 52.2581C21.2014 52.2581 20.9208 52.0636 20.8114 51.7742L19.0201 46.9975C18.4637 45.5129 17.0237 44.5162 15.4385 44.5162C13.9898 44.5162 12.7269 45.3252 12.0775 46.5155L9.02722 43.4652C8.45722 42.8942 7.69851 42.5807 6.89142 42.5807C5.22593 42.5807 3.87109 43.9355 3.87109 45.601V45.7317C3.87109 46.4149 4.10626 47.0846 4.53303 47.6188L6.68142 50.3042C7.36561 51.1588 7.74206 52.2329 7.74206 53.3265V56.1291H9.67755V53.3265C9.67755 51.7936 9.15013 50.2907 8.19303 49.0946L6.04464 46.4091C5.89077 46.2175 5.80658 45.9775 5.80658 45.7317V45.601C5.80658 45.0029 6.29335 44.5162 6.89142 44.5162C7.18174 44.5162 7.45367 44.6284 7.65884 44.8336L11.613 48.7878V53.2258C11.613 54.8265 12.9156 56.1291 14.5163 56.1291C16.1169 56.1291 17.4195 54.8265 17.4195 53.2258V53.0594C17.4195 52.2842 17.1175 51.5546 16.5688 51.0068L13.5766 48.0146C13.7324 47.1271 14.5085 46.4517 15.4385 46.4517C16.2224 46.4517 16.9337 46.9452 17.2085 47.6778L18.9988 52.4546C19.3898 53.4939 20.3992 54.1936 21.5111 54.1936C22.9898 54.1936 24.1937 52.9897 24.1937 51.511V50.3226C24.1937 49.7884 24.6282 49.3549 25.1614 49.3549C25.6946 49.3549 26.1292 49.7884 26.1292 50.3226V53.2258C26.1292 54.8265 27.4317 56.1291 29.0324 56.1291H30.0001V54.1936H29.0324C28.4992 54.1936 28.0646 53.76 28.0646 53.2258ZM15.2004 52.3752C15.3804 52.5562 15.484 52.8049 15.484 53.0594V53.2258C15.484 53.76 15.0495 54.1936 14.5163 54.1936C13.983 54.1936 13.5485 53.76 13.5485 53.2258V50.7233L15.2004 52.3752Z" fill="#1F2428"/>
<path d="M13.5483 3.87097H27.0967V5.80646H13.5483V3.87097Z" fill="#1F2428"/>
<path d="M13.5483 7.74194H27.0967V9.67743H13.5483V7.74194Z" fill="#1F2428"/>
<path d="M13.5483 11.6129H27.0967V13.5484H13.5483V11.6129Z" fill="#1F2428"/>
<path d="M19.355 15.4839H3.87109V29.0323H19.355V15.4839ZM17.4195 27.0968H5.80658V17.4194H17.4195V27.0968Z" fill="#1F2428"/>
<path d="M3.87109 30.9678H19.355V32.9033H3.87109V30.9678Z" fill="#1F2428"/>
<path d="M3.87109 34.8387H19.355V36.7742H3.87109V34.8387Z" fill="#1F2428"/>
<path d="M3.87109 38.7097H19.355V40.6452H3.87109V38.7097Z" fill="#1F2428"/>
</svg>
