<svg width="60" height="60" viewBox="0 0 60 60" fill="none" xmlns="http://www.w3.org/2000/svg">
<rect width="60" height="60" fill="white"/>
<path d="M29.0324 19.3548H5.80658C4.73916 19.3548 3.87109 18.4868 3.87109 17.4194V9.67743C3.87109 8.61001 4.73916 7.74194 5.80658 7.74194H29.0324C30.0998 7.74194 30.9679 8.61001 30.9679 9.67743V17.4194C30.9679 18.4868 30.0998 19.3548 29.0324 19.3548Z" fill="#41B7E9"/>
<path d="M41.6129 56.1291C35.7436 56.1291 30.9678 51.3533 30.9678 45.4839C30.9678 39.6146 35.7436 34.8387 41.6129 34.8387C47.4823 34.8387 52.2581 39.6146 52.2581 45.4839C52.2581 51.3533 47.4823 56.1291 41.6129 56.1291Z" fill="#41B7E9"/>
<path d="M57.0968 13.5484C56.0787 13.5484 55.1855 14.0768 54.6668 14.8713L50.581 11.8065C49.3577 10.889 47.941 10.2648 46.4516 9.94065V4.83871C46.4516 2.17065 44.281 0 41.6129 0C38.9448 0 36.7742 2.17065 36.7742 4.83871V10.7535C36.0852 11.0884 35.4377 11.4987 34.8387 11.971V8.70968C34.8387 6.04161 32.6681 3.87097 30 3.87097H4.83871C2.17065 3.87097 0 6.04161 0 8.70968V47.4194C0 50.0874 2.17065 52.2581 4.83871 52.2581H28.7845C31.2232 56.8568 36.0552 60 41.6129 60C49.6171 60 56.129 53.4881 56.129 45.4839C56.129 38.2606 50.82 32.2703 43.9026 31.1661L45.5439 26.789C46.32 26.9845 47.1174 27.0968 47.9245 27.0968C48.9774 27.0968 50.0177 26.9284 51.0174 26.5945L54.4848 25.439C54.9532 26.4155 55.9432 27.0968 57.0968 27.0968H60V13.5484H57.0968ZM38.7097 7.74194H40.6452V15.8642C40.02 15.6619 39.3697 15.54 38.7097 15.5032V7.74194ZM42.5806 7.74194H44.5161V18.3087L43.0984 17.1745C42.931 17.041 42.7577 16.9152 42.5806 16.7961V7.74194ZM41.6129 1.93548C43.2135 1.93548 44.5161 3.23806 44.5161 4.83871V5.80645H38.7097V4.83871C38.7097 3.23806 40.0123 1.93548 41.6129 1.93548ZM36.7742 12.9619V15.8448C35.6332 16.4052 34.8387 17.5684 34.8387 18.9232C34.8387 19.0384 34.8494 19.1516 34.861 19.2658C34.7119 19.3229 34.5523 19.3539 34.3887 19.3539H34.229C33.8748 19.3539 33.5419 19.2155 33.2913 18.9658C33.0406 18.7161 32.9032 18.3823 32.9032 18.0271C32.9032 17.7968 32.9642 17.5694 33.0784 17.369L33.8603 16.0006C34.5668 14.7648 35.5761 13.7197 36.7742 12.9619ZM34.8387 21.2477C35.0971 21.2119 35.3506 21.1539 35.5906 21.059C35.8432 21.3784 36.15 21.6581 36.5081 21.8729L36.7742 22.0316V24.3687L39.3232 31.1661C37.7284 31.4206 36.2168 31.9239 34.8387 32.6545V21.2477ZM4.83871 50.3226C3.23806 50.3226 1.93548 49.02 1.93548 47.4194V8.70968C1.93548 7.10903 3.23806 5.80645 4.83871 5.80645H30C31.6006 5.80645 32.9032 7.10903 32.9032 8.70968V13.9558C32.6429 14.3032 32.3961 14.6613 32.1794 15.0406L31.3965 16.41C31.1158 16.9016 30.9677 17.461 30.9677 18.0271C30.9677 18.8981 31.3074 19.7177 31.9229 20.3342C32.2094 20.6206 32.5432 20.8403 32.9032 21.001V33.8981C32.2065 34.4235 31.559 35.0081 30.9677 35.6477V32.9032C30.9677 31.8358 30.0997 30.9677 29.0323 30.9677H25.1613C24.0939 30.9677 23.2258 31.8358 23.2258 32.9032V36.7742C23.2258 37.8416 24.0939 38.7097 25.1613 38.7097H28.7845C28.4564 39.3281 28.1816 39.9774 27.9445 40.6452H25.1613C24.0939 40.6452 23.2258 41.5132 23.2258 42.5806V46.4516C23.2258 47.519 24.0939 48.3871 25.1613 48.3871H27.389C27.5245 49.0519 27.72 49.6935 27.9435 50.3226H4.83871ZM27.1461 46.4516H25.1613V42.5806H27.389C27.1984 43.5194 27.0968 44.49 27.0968 45.4839C27.0968 45.811 27.1248 46.1303 27.1461 46.4516ZM29.0332 36.7742H25.1613V32.9032H29.0323L29.0332 36.7742ZM49.7884 38.6768L51.1568 37.3084C52.8474 39.2787 53.9352 41.7745 54.1452 44.5152H52.2097C52.2377 44.8355 52.2581 45.1568 52.2581 45.4839C52.2581 45.811 52.2377 46.1323 52.2087 46.4516H54.1442C53.9342 49.1932 52.8465 51.6881 51.1558 53.6584L49.7874 52.29C49.3732 52.7864 48.9155 53.2442 48.419 53.6584L49.7874 55.0268C47.8171 56.7174 45.3213 57.8052 42.5806 58.0152V56.0797C42.2613 56.1087 41.94 56.129 41.6129 56.129C41.2858 56.129 40.9645 56.1087 40.6452 56.0797V58.0152C37.9035 57.8052 35.4087 56.7174 33.4384 55.0268L34.8068 53.6584C34.3103 53.2442 33.8526 52.7864 33.4384 52.29L32.07 53.6584C30.3794 51.6881 29.2916 49.1923 29.0816 46.4516H31.0171C30.9881 46.1323 30.9677 45.811 30.9677 45.4839C30.9677 45.1568 30.9881 44.8355 31.0171 44.5161H29.0816C29.2916 41.7745 30.3794 39.2797 32.07 37.3094L33.4384 38.6777C33.8526 38.1813 34.3103 37.7235 34.8068 37.3094L33.4384 35.941C35.4087 34.2503 37.9045 33.1626 40.6452 32.9526V34.8881C40.9645 34.859 41.2858 34.8387 41.6129 34.8387C41.94 34.8387 42.2613 34.859 42.5806 34.8881V32.9526C45.3223 33.1626 47.8171 34.2503 49.7874 35.941L48.419 37.3094C48.9165 37.7226 49.3742 38.1803 49.7884 38.6768ZM41.91 30.9677H41.3158L38.7097 24.0184V23.1929L42.8932 25.7023C43.1613 25.8629 43.4439 25.9935 43.7245 26.1281L41.91 30.9677ZM50.4048 24.7587C48.2565 25.4758 45.8313 25.2087 43.889 24.0435L37.5048 20.2132C37.0539 19.9423 36.7742 19.4487 36.7742 18.9232C36.7742 18.0939 37.4487 17.4194 38.2781 17.4194C39.5855 17.4194 40.8677 17.8694 41.8887 18.6861L45.1442 21.2903H50.3226V19.3548H46.4516V11.9119C47.52 12.1994 48.5303 12.689 49.4187 13.3548L54.1935 16.9355V23.4958L50.4048 24.7587ZM58.0645 25.1613H57.0968C56.5635 25.1613 56.129 24.7268 56.129 24.1935V16.4516C56.129 15.9184 56.5635 15.4839 57.0968 15.4839H58.0645V25.1613Z" fill="#1F2428"/>
<path d="M9.67755 21.2903H5.80658C4.73916 21.2903 3.87109 22.1583 3.87109 23.2258V27.0967C3.87109 28.1642 4.73916 29.0322 5.80658 29.0322H9.67755C10.745 29.0322 11.613 28.1642 11.613 27.0967V23.2258C11.613 22.1583 10.745 21.2903 9.67755 21.2903ZM5.80658 27.0967V23.2258H9.67755L9.67851 27.0967H5.80658Z" fill="#1F2428"/>
<path d="M19.3548 21.2903H15.4838C14.4164 21.2903 13.5483 22.1583 13.5483 23.2258V27.0967C13.5483 28.1642 14.4164 29.0322 15.4838 29.0322H19.3548C20.4222 29.0322 21.2903 28.1642 21.2903 27.0967V23.2258C21.2903 22.1583 20.4222 21.2903 19.3548 21.2903ZM15.4838 27.0967V23.2258H19.3548L19.3558 27.0967H15.4838Z" fill="#1F2428"/>
<path d="M25.1611 29.0322H29.032C30.0995 29.0322 30.9675 28.1642 30.9675 27.0967V23.2258C30.9675 22.1583 30.0995 21.2903 29.032 21.2903H25.1611C24.0937 21.2903 23.2256 22.1583 23.2256 23.2258V27.0967C23.2256 28.1642 24.0937 29.0322 25.1611 29.0322ZM25.1611 23.2258H29.032L29.033 27.0967H25.1611V23.2258Z" fill="#1F2428"/>
<path d="M9.67755 30.9678H5.80658C4.73916 30.9678 3.87109 31.8358 3.87109 32.9033V36.7742C3.87109 37.8416 4.73916 38.7097 5.80658 38.7097H9.67755C10.745 38.7097 11.613 37.8416 11.613 36.7742V32.9033C11.613 31.8358 10.745 30.9678 9.67755 30.9678ZM5.80658 36.7742V32.9033H9.67755L9.67851 36.7742H5.80658Z" fill="#1F2428"/>
<path d="M19.3548 30.9678H15.4838C14.4164 30.9678 13.5483 31.8358 13.5483 32.9033V36.7742C13.5483 37.8416 14.4164 38.7097 15.4838 38.7097H19.3548C20.4222 38.7097 21.2903 37.8416 21.2903 36.7742V32.9033C21.2903 31.8358 20.4222 30.9678 19.3548 30.9678ZM15.4838 36.7742V32.9033H19.3548L19.3558 36.7742H15.4838Z" fill="#1F2428"/>
<path d="M9.67755 40.6451H5.80658C4.73916 40.6451 3.87109 41.5132 3.87109 42.5806V46.4516C3.87109 47.519 4.73916 48.3871 5.80658 48.3871H9.67755C10.745 48.3871 11.613 47.519 11.613 46.4516V42.5806C11.613 41.5132 10.745 40.6451 9.67755 40.6451ZM5.80658 46.4516V42.5806H9.67755L9.67851 46.4516H5.80658Z" fill="#1F2428"/>
<path d="M19.3548 40.6451H15.4838C14.4164 40.6451 13.5483 41.5132 13.5483 42.5806V46.4516C13.5483 47.519 14.4164 48.3871 15.4838 48.3871H19.3548C20.4222 48.3871 21.2903 47.519 21.2903 46.4516V42.5806C21.2903 41.5132 20.4222 40.6451 19.3548 40.6451ZM15.4838 46.4516V42.5806H19.3548L19.3558 46.4516H15.4838Z" fill="#1F2428"/>
<path d="M40.6449 42.5807H42.5804C43.1136 42.5807 43.5482 43.0152 43.5482 43.5484H45.4836C45.4836 41.9478 44.1811 40.6452 42.5804 40.6452V38.7097H40.6449V40.6452C39.0443 40.6452 37.7417 41.9478 37.7417 43.5484C37.7417 45.1491 39.0443 46.4517 40.6449 46.4517H42.5804C43.1136 46.4517 43.5482 46.8862 43.5482 47.4194C43.5482 47.9526 43.1136 48.3871 42.5804 48.3871H40.6449C40.1117 48.3871 39.6772 47.9526 39.6772 47.4194H37.7417C37.7417 49.02 39.0443 50.3226 40.6449 50.3226V52.2581H42.5804V50.3226C44.1811 50.3226 45.4836 49.02 45.4836 47.4194C45.4836 45.8187 44.1811 44.5162 42.5804 44.5162H40.6449C40.1117 44.5162 39.6772 44.0817 39.6772 43.5484C39.6772 43.0152 40.1117 42.5807 40.6449 42.5807Z" fill="#1F2428"/>
</svg>
