<svg width="60" height="60" viewBox="0 0 60 60" fill="none" xmlns="http://www.w3.org/2000/svg">
<rect width="60" height="60" fill="white"/>
<path d="M6.77441 0.967773H53.226V7.74197H6.77441V0.967773Z" fill="#41B7E9"/>
<path d="M41.3804 26.1096C39.7181 25.9414 38.4059 24.6065 38.0779 22.9673L37.742 21.2903V22.2301C37.742 24.1004 36.4392 25.8077 34.5902 26.0865C32.5819 26.3894 30.7546 25.0606 30.3695 23.1369L30 21.2903L29.6574 23.0051C29.3399 24.5923 28.0858 25.888 26.4801 26.0959C24.2011 26.3922 22.2581 24.6259 22.2581 22.4059V21.2903L21.9221 22.9673C21.5942 24.6056 20.282 25.9414 18.6196 26.1096C17.3679 26.2363 16.2428 25.7321 15.4839 24.8905V36.7742C15.4839 37.8435 16.35 38.7096 17.4194 38.7096H42.5807C43.65 38.7096 44.5161 37.8435 44.5161 36.7742V24.8905C43.7563 25.7321 42.6308 26.2363 41.3804 26.1096Z" fill="#41B7E9"/>
<path d="M7.7417 48.3871H9.67718V50.3226H7.7417V48.3871Z" fill="#1F2428"/>
<path d="M3.87109 48.3871H5.80658V50.3226H3.87109V48.3871Z" fill="#1F2428"/>
<path d="M11.6128 48.3871H13.5483V50.3226H11.6128V48.3871Z" fill="#1F2428"/>
<path d="M55.1613 13.5484H54.1935V0H5.80645V11.6129H7.74194V1.93548H52.2581V15.4839H55.1613C56.7617 15.4839 58.0645 16.7866 58.0645 18.3871V46.4516H19.5831L15.7121 44.5161H1.93548V18.3871C1.93548 16.7866 3.23825 15.4839 4.83871 15.4839H5.80645V42.5806H54.1935V17.4194H52.2581V40.6452H7.74194V13.5484H4.83871C2.1708 13.5484 0 15.7192 0 18.3871V49.3548C0 52.0227 2.1708 54.1935 4.83871 54.1935H17.4194V58.0645H13.5484V60H46.4516V58.0645H42.5806V54.1935H55.1613C57.8292 54.1935 60 52.0227 60 49.3548V18.3871C60 15.7192 57.8292 13.5484 55.1613 13.5484ZM40.6452 58.0645H19.3548V54.1935H40.6452V58.0645ZM55.1613 52.2581H4.83871C3.23825 52.2581 1.93548 50.9553 1.93548 49.3548V46.4516H15.2556L19.1266 48.3871H58.0645V49.3548C58.0645 50.9553 56.7617 52.2581 55.1613 52.2581Z" fill="#1F2428"/>
<path d="M9.67725 3.87097H11.6127V5.80646H9.67725V3.87097Z" fill="#1F2428"/>
<path d="M13.5483 3.87097H15.4838V5.80646H13.5483V3.87097Z" fill="#1F2428"/>
<path d="M17.4194 3.87097H19.3549V5.80646H17.4194V3.87097Z" fill="#1F2428"/>
<path d="M13.5483 22.406C13.5483 24.9931 15.652 27.0968 18.2391 27.0968C19.8231 27.0968 21.2477 26.2859 22.1011 25.0375C22.946 26.2788 24.3688 27.0968 25.9811 27.0968C27.66 27.0968 29.1707 26.1947 30 24.8168C30.8302 26.1957 32.3399 27.0968 34.0188 27.0968C35.6301 27.0968 37.0539 26.2788 37.8988 25.0375C38.7531 26.2859 40.1768 27.0968 41.7608 27.0968C44.3479 27.0968 46.4516 24.9931 46.4516 22.406V21.8942C46.4516 21.3891 46.3703 20.8887 46.2106 20.4105L43.2785 11.6129H16.7214L13.7893 20.4105C13.6296 20.8887 13.5483 21.3891 13.5483 21.8942V22.406ZM41.8827 13.5484L44.3748 21.0234C44.4688 21.304 44.5161 21.597 44.5161 21.8942V22.406C44.5161 23.9256 43.2804 25.1613 41.7608 25.1613C40.4514 25.1613 39.3173 24.2304 39.0598 22.9461L38.7096 21.3366V21.2903H38.7002L37.0142 13.5484H41.8827ZM36.7741 21.3948V22.406C36.7741 23.9256 35.5385 25.1613 34.0188 25.1613C32.7094 25.1613 31.5754 24.2304 31.3178 22.9461L30.9677 21.1944V13.5484H35.0305L36.7741 21.3948ZM29.0322 13.5484V21.1944L28.6821 22.947C28.4245 24.2304 27.2895 25.1613 25.9811 25.1613C24.4614 25.1613 23.2258 23.9256 23.2258 22.406V21.545L24.9694 13.5484H29.0322ZM15.4838 21.8942C15.4838 21.597 15.5311 21.304 15.6251 21.0234L18.1172 13.5484H22.9867L21.3096 21.1008L20.9401 22.947C20.6826 24.2304 19.5476 25.1613 18.2391 25.1613C16.7195 25.1613 15.4838 23.9256 15.4838 22.406V21.8942Z" fill="#1F2428"/>
<path d="M33.8708 38.7096V29.0322H26.1289V38.7096H28.0644V30.9677H31.9354V38.7096H33.8708Z" fill="#1F2428"/>
</svg>
