<svg width="60" height="60" viewBox="0 0 60 60" fill="none" xmlns="http://www.w3.org/2000/svg">
<rect width="60" height="60" fill="white"/>
<path d="M46.4518 30.9677H36.7744V22.2581H46.4518V30.9677Z" fill="#41B7E9"/>
<path d="M50 9.85484C50 14.1929 46.4833 17.7097 42.1452 17.7097H40.8548C36.5167 17.7097 33 14.1929 33 9.85484C33 5.51673 36.5167 2 40.8548 2H42.1452C46.4833 2 50 5.51673 50 9.85484Z" fill="#41B7E9"/>
<path d="M26.1291 60C21.3272 60 17.4194 56.0923 17.4194 51.2904C17.4194 46.4884 21.3272 42.5807 26.1291 42.5807C30.931 42.5807 34.8388 46.4884 34.8388 51.2904C34.8388 56.0923 30.931 60 26.1291 60ZM26.1291 47.4194C23.9943 47.4194 22.2581 49.1555 22.2581 51.2904C22.2581 53.4252 23.9943 55.1613 26.1291 55.1613C28.264 55.1613 30.0001 53.4252 30.0001 51.2904C30.0001 49.1555 28.264 47.4194 26.1291 47.4194Z" fill="#41B7E9"/>
<path d="M30.9678 37.7419H40.6452V42.5807H30.9678V37.7419Z" fill="#41B7E9"/>
<path d="M16.2455 19.619C15.9223 18.3241 14.7639 17.4193 13.4294 17.4193H9.67742V15.4838H13.4294C15.6542 15.4838 17.5839 16.9916 18.1239 19.1496L24.0474 42.8429C24.6687 42.69 25.3142 42.6 25.979 42.5883L20.0013 18.6803C19.2465 15.659 16.5445 13.5483 13.4294 13.5483H2.90323C1.30258 13.5483 0 14.8509 0 16.4516C0 18.0522 1.30258 19.3548 2.90323 19.3548H13.4294C13.8735 19.3548 14.2597 19.6567 14.3681 20.0883L20.5084 44.6487C21.03 44.2064 21.6048 43.829 22.2213 43.5183L16.2455 19.619ZM1.93548 16.4516C1.93548 15.9183 2.37 15.4838 2.90323 15.4838H7.74194V17.4193H2.90323C2.37 17.4193 1.93548 16.9848 1.93548 16.4516Z" fill="#1F2428"/>
<path d="M59.9022 44.7358C59.4986 43.2261 57.9057 42.2719 56.3486 42.6793L56.1289 42.7364V24.1935C56.1289 22.5929 54.8264 21.2903 53.2257 21.2903H29.9999C28.3993 21.2903 27.0967 22.5929 27.0967 24.1935V42.6377C27.7683 42.7122 28.4147 42.87 29.0322 43.0887V24.1935C29.0322 23.6603 29.4667 23.2258 29.9999 23.2258H53.2257C53.7589 23.2258 54.1935 23.6603 54.1935 24.1935V43.2532L34.3847 48.5351C34.587 49.1409 34.7302 49.7729 34.7951 50.429L56.8441 44.549C57.3686 44.4087 57.897 44.73 58.0325 45.2332C58.1699 45.749 57.8622 46.2813 57.3473 46.4187L34.7535 52.4438C34.6528 53.1967 34.4622 53.9196 34.1815 54.6L57.8457 48.2893C59.3912 47.8761 60.3135 46.2822 59.9022 44.7358Z" fill="#1F2428"/>
<path d="M26.1292 46.4517C23.4612 46.4517 21.2905 48.6223 21.2905 51.2904C21.2905 53.9584 23.4612 56.1291 26.1292 56.1291C28.7973 56.1291 30.9679 53.9584 30.9679 51.2904C30.9679 48.6223 28.7973 46.4517 26.1292 46.4517ZM26.1292 54.1936C24.5286 54.1936 23.226 52.891 23.226 51.2904C23.226 49.6897 24.5286 48.3871 26.1292 48.3871C27.7299 48.3871 29.0325 49.6897 29.0325 51.2904C29.0325 52.891 27.7299 54.1936 26.1292 54.1936Z" fill="#1F2428"/>
<path d="M26.1289 52.2581C26.6633 52.2581 27.0966 51.8248 27.0966 51.2904C27.0966 50.7559 26.6633 50.3226 26.1289 50.3226C25.5944 50.3226 25.1611 50.7559 25.1611 51.2904C25.1611 51.8248 25.5944 52.2581 26.1289 52.2581Z" fill="#1F2428"/>
<path d="M40.645 25.1613H42.5805V30.9677H40.645V25.1613Z" fill="#1F2428"/>
<path d="M34.8389 40.6451H36.7744V42.5806H34.8389V40.6451Z" fill="#1F2428"/>
<path d="M30.9678 40.6451H32.9033V42.5806H30.9678V40.6451Z" fill="#1F2428"/>
<path d="M38.7095 40.6451H40.645V42.5806H38.7095V40.6451Z" fill="#1F2428"/>
<path d="M30.9678 36.7742H40.6452V38.7097H30.9678V36.7742Z" fill="#1F2428"/>
<path d="M41.613 19.3548C46.9491 19.3548 51.2904 15.0135 51.2904 9.67742C51.2904 4.34129 46.9491 0 41.613 0C36.2768 0 31.9355 4.34129 31.9355 9.67742C31.9355 15.0135 36.2768 19.3548 41.613 19.3548ZM41.613 1.93548C45.8817 1.93548 49.3549 5.40871 49.3549 9.67742C49.3549 13.9461 45.8817 17.4194 41.613 17.4194C37.3443 17.4194 33.871 13.9461 33.871 9.67742C33.871 5.40871 37.3443 1.93548 41.613 1.93548Z" fill="#1F2428"/>
<path d="M44.2324 10.9287L42.5805 9.27678V3.87097H40.645V10.0781L42.8641 12.2971L44.2324 10.9287Z" fill="#1F2428"/>
<path d="M6.77419 40.6452H12.5806C14.1813 40.6452 15.4839 39.3426 15.4839 37.742C15.4839 36.1413 14.1813 34.8387 12.5806 34.8387H4.83871C4.30548 34.8387 3.87097 34.4042 3.87097 33.871C3.87097 33.3378 4.30548 32.9033 4.83871 32.9033H14.5161V30.9678H4.83871C3.23806 30.9678 1.93548 32.2704 1.93548 33.871C1.93548 35.4716 3.23806 36.7742 4.83871 36.7742H12.5806C13.1139 36.7742 13.5484 37.2087 13.5484 37.742C13.5484 38.2752 13.1139 38.7097 12.5806 38.7097H6.77419C5.17355 38.7097 3.87097 40.0123 3.87097 41.6129C3.87097 43.2136 5.17355 44.5162 6.77419 44.5162H10.6452C11.1784 44.5162 11.6129 44.9507 11.6129 45.4839C11.6129 46.0171 11.1784 46.4516 10.6452 46.4516H2.90323C1.30258 46.4516 0 47.7542 0 49.3549C0 50.9555 1.30258 52.2581 2.90323 52.2581H15.4839V50.3226H2.90323C2.37 50.3226 1.93548 49.8881 1.93548 49.3549C1.93548 48.8216 2.37 48.3871 2.90323 48.3871H10.6452C12.2458 48.3871 13.5484 47.0845 13.5484 45.4839C13.5484 43.8833 12.2458 42.5807 10.6452 42.5807H6.77419C6.24097 42.5807 5.80645 42.1462 5.80645 41.6129C5.80645 41.0797 6.24097 40.6452 6.77419 40.6452Z" fill="#1F2428"/>
</svg>
