<svg width="26" height="26" viewBox="0 0 26 26" fill="none" xmlns="http://www.w3.org/2000/svg">
<path d="M1.625 21.9357H24.375" stroke="#1F2428" stroke-linecap="round" stroke-linejoin="round"/>
<path d="M14.6245 21.9357V4.06073C14.6245 3.84524 14.5389 3.63858 14.3865 3.48621C14.2342 3.33383 14.0275 3.24823 13.812 3.24823H4.06201C3.84652 3.24823 3.63986 3.33383 3.48749 3.48621C3.33511 3.63858 3.24951 3.84524 3.24951 4.06073V21.9357" stroke="#1F2428" stroke-linecap="round" stroke-linejoin="round"/>
<path d="M22.7495 21.9357V10.5607C22.7495 10.3452 22.6639 10.1386 22.5115 9.98621C22.3592 9.83383 22.1525 9.74823 21.937 9.74823H14.6245" stroke="#1F2428" stroke-linecap="round" stroke-linejoin="round"/>
<path d="M6.49951 7.31073H9.74951" stroke="#1F2428" stroke-linecap="round" stroke-linejoin="round"/>
<path d="M8.12451 13.8107H11.3745" stroke="#1F2428" stroke-linecap="round" stroke-linejoin="round"/>
<path d="M6.49951 17.8732H9.74951" stroke="#1F2428" stroke-linecap="round" stroke-linejoin="round"/>
<path d="M17.8745 17.8732H19.4995" stroke="#1F2428" stroke-linecap="round" stroke-linejoin="round"/>
<path d="M17.8745 13.8107H19.4995" stroke="#1F2428" stroke-linecap="round" stroke-linejoin="round"/>
</svg>
