<svg width="26" height="26" viewBox="0 0 26 26" fill="none" xmlns="http://www.w3.org/2000/svg">
<path d="M13 22.75C18.3848 22.75 22.75 18.3848 22.75 13C22.75 7.61522 18.3848 3.25 13 3.25C7.61522 3.25 3.25 7.61522 3.25 13C3.25 18.3848 7.61522 22.75 13 22.75Z" stroke="#1F2428" stroke-linecap="round" stroke-linejoin="round"/>
<path d="M21.7509 17.3035L16.2375 13.9125C16.1408 13.853 16.0328 13.8145 15.9204 13.7993L13.6029 13.4869C13.4288 13.4635 13.2519 13.497 13.0985 13.5826C12.9452 13.6681 12.8237 13.801 12.7522 13.9614L11.3609 17.0833C11.2962 17.2284 11.2755 17.3894 11.3014 17.5462C11.3272 17.7031 11.3985 17.8489 11.5064 17.9656L13.4158 20.0308C13.5024 20.1244 13.5657 20.2371 13.6006 20.3597C13.6355 20.4824 13.6411 20.6115 13.6169 20.7367L13.228 22.7473" stroke="#1F2428" stroke-linecap="round" stroke-linejoin="round"/>
<path d="M6.59659 5.64743L5.68819 7.79545C5.60719 7.98698 5.60272 8.20227 5.67568 8.397L6.84272 11.5117C6.89051 11.6393 6.9696 11.7528 7.07271 11.8418C7.17583 11.9308 7.29967 11.9924 7.43283 12.021L9.60931 12.4888C9.73008 12.5148 9.84334 12.5679 9.94048 12.6442C10.0376 12.7205 10.1161 12.818 10.1699 12.9292L10.5564 13.7276C10.6229 13.8651 10.7268 13.9809 10.8562 14.062C10.9855 14.1431 11.1351 14.1861 11.2877 14.1861H12.652" stroke="#1F2428" stroke-linecap="round" stroke-linejoin="round"/>
<path d="M15.4842 3.56976L16.4322 5.26773C16.5218 5.42824 16.5543 5.6144 16.5244 5.7958C16.4946 5.97719 16.4041 6.14309 16.2677 6.2664L13.5346 8.73818C13.4882 8.78014 13.4371 8.81659 13.3824 8.84682L12.1391 9.53342C12.0188 9.59983 11.8837 9.63467 11.7463 9.63467H9.5784C9.41853 9.63467 9.26221 9.68183 9.12902 9.77025C8.99583 9.85867 8.89168 9.98442 8.82962 10.1318L7.98389 12.1395" stroke="#1F2428" stroke-linecap="round" stroke-linejoin="round"/>
</svg>
