<svg width="52" height="52" viewBox="0 0 52 52" fill="none" xmlns="http://www.w3.org/2000/svg">
<path d="M51.1614 5.87102V10.9033H10.9033V5.87102C10.9033 4.94844 11.6582 4.1936 12.5807 4.1936H15.9356V6.70973C15.9356 7.17102 16.313 7.54844 16.7743 7.54844H18.4517C18.913 7.54844 19.2904 7.17102 19.2904 6.70973V4.1936H22.6453V6.70973C22.6453 7.17102 23.0227 7.54844 23.484 7.54844H25.1614C25.6227 7.54844 26.0001 7.17102 26.0001 6.70973V4.1936H36.0646V6.70973C36.0646 7.17102 36.442 7.54844 36.9033 7.54844H38.5807C39.042 7.54844 39.4194 7.17102 39.4194 6.70973V4.1936H42.7743V6.70973C42.7743 7.17102 43.1517 7.54844 43.613 7.54844H45.2904C45.7517 7.54844 46.1291 7.17102 46.1291 6.70973V4.1936H49.484C50.4065 4.1936 51.1614 4.94844 51.1614 5.87102Z" fill="#41B7E9"/>
<path d="M49.4837 3.35484H46.9675V2.51613C46.9675 1.1289 45.8386 0 44.4514 0C43.0642 0 41.9353 1.1289 41.9353 2.51613V3.35484H40.2579V2.51613C40.2579 1.1289 39.129 0 37.7417 0C36.3545 0 35.2256 1.1289 35.2256 2.51613V3.35484H26.8385V2.51613C26.8385 1.1289 25.7096 0 24.3224 0C22.9351 0 21.8062 1.1289 21.8062 2.51613V3.35484H20.1288V2.51613C20.1288 1.1289 18.9999 0 17.6127 0C16.2255 0 15.0966 1.1289 15.0966 2.51613V3.35484H12.5804C11.1932 3.35484 10.0643 4.48374 10.0643 5.87097V21.8065H6.70947V26.8387H8.38689V29.4974H10.0643V26.8387H13.4191V29.4974H15.0966V26.8387H16.774V21.8065H11.7417V5.87097C11.7417 5.408 12.1183 5.03226 12.5804 5.03226H15.0966V6.70968C15.0966 7.63477 15.8489 8.3871 16.774 8.3871H18.4514C19.3765 8.3871 20.1288 7.63477 20.1288 6.70968V5.03226H21.8062V6.70968C21.8062 7.63477 22.5586 8.3871 23.4837 8.3871H25.1611C26.0862 8.3871 26.8385 7.63477 26.8385 6.70968V5.03226H35.2256V6.70968C35.2256 7.63477 35.9779 8.3871 36.903 8.3871H38.5804C39.5055 8.3871 40.2579 7.63477 40.2579 6.70968V5.03226H41.9353V6.70968C41.9353 7.63477 42.6876 8.3871 43.6127 8.3871H45.2901C46.2152 8.3871 46.9675 7.63477 46.9675 6.70968V5.03226H49.4837C49.9458 5.03226 50.3224 5.408 50.3224 5.87097V36.0645C50.3224 36.5275 49.9458 36.9032 49.4837 36.9032H22.3531V38.5806H49.4837C50.8709 38.5806 51.9998 37.4517 51.9998 36.0645V5.87097C51.9998 4.48374 50.8709 3.35484 49.4837 3.35484ZM15.0966 23.4839V25.1613H8.38689V23.4839H15.0966ZM16.774 6.70968V2.51613C16.774 2.05316 17.1506 1.67742 17.6127 1.67742C18.0748 1.67742 18.4514 2.05316 18.4514 2.51613L18.4522 6.70968H16.774ZM23.4837 6.70968V2.51613C23.4837 2.05316 23.8602 1.67742 24.3224 1.67742C24.7845 1.67742 25.1611 2.05316 25.1611 2.51613L25.1619 6.70968H23.4837ZM36.903 6.70968V2.51613C36.903 2.05316 37.2796 1.67742 37.7417 1.67742C38.2039 1.67742 38.5804 2.05316 38.5804 2.51613L38.5813 6.70968H36.903ZM43.6127 6.70968V2.51613C43.6127 2.05316 43.9893 1.67742 44.4514 1.67742C44.9135 1.67742 45.2901 2.05316 45.2901 2.51613L45.291 6.70968H43.6127Z" fill="#1F2428"/>
<path d="M46.9676 35.2258H20.9676V33.5483H45.2902V15.0967H16.7741V20.0753H15.0967V13.4193H46.9676V35.2258Z" fill="#1F2428"/>
<path d="M31.0321 23.4838C30.107 23.4838 29.3547 22.7315 29.3547 21.8064C29.3547 20.8813 30.107 20.129 31.0321 20.129C31.9572 20.129 32.7095 20.8813 32.7095 21.8064H34.3869C34.3869 20.2473 33.3134 18.9456 31.8708 18.5707V16.7742H30.1934V18.5707C28.7508 18.9456 27.6772 20.2473 27.6772 21.8064C27.6772 23.6566 29.1819 25.1613 31.0321 25.1613C31.9572 25.1613 32.7095 25.9136 32.7095 26.8387C32.7095 27.7638 31.9572 28.5161 31.0321 28.5161C30.107 28.5161 29.3547 27.7638 29.3547 26.8387H27.6772C27.6772 28.3978 28.7508 29.6995 30.1934 30.0744V31.8709H31.8708V30.0744C33.3134 29.6995 34.3869 28.3978 34.3869 26.8387C34.3869 24.9885 32.8823 23.4838 31.0321 23.4838Z" fill="#1F2428"/>
<path d="M11.7419 28.5161C5.25703 28.5161 0 33.7731 0 40.258C0 46.743 5.25703 52 11.7419 52C18.2268 52 23.4839 46.743 23.4839 40.258C23.4839 33.7731 18.2268 28.5161 11.7419 28.5161ZM11.7419 47.8064C7.57271 47.8064 4.19355 44.4273 4.19355 40.258C4.19355 36.0888 7.57271 32.7097 11.7419 32.7097C15.9112 32.7097 19.2903 36.0888 19.2903 40.258C19.2903 44.4273 15.9112 47.8064 11.7419 47.8064Z" fill="#41B7E9"/>
<path d="M11.7421 48.6452C7.11743 48.6452 3.35498 44.8827 3.35498 40.2581C3.35498 35.6334 7.11743 31.871 11.7421 31.871C16.3667 31.871 20.1292 35.6334 20.1292 40.2581C20.1292 44.8827 16.3667 48.6452 11.7421 48.6452ZM11.7421 33.5484C8.04253 33.5484 5.0324 36.5585 5.0324 40.2581C5.0324 43.9576 8.04253 46.9677 11.7421 46.9677C15.4416 46.9677 18.4518 43.9576 18.4518 40.2581C18.4518 36.5585 15.4416 33.5484 11.7421 33.5484Z" fill="#1F2428"/>
<path d="M10.6576 42.5285L9.47168 41.3425L10.9034 39.9109V35.2258H12.5808V40.6053L10.6576 42.5285Z" fill="#1F2428"/>
</svg>
