<svg width="52" height="52" viewBox="0 0 52 52" fill="none" xmlns="http://www.w3.org/2000/svg">
<rect width="52" height="52" fill="white"/>
<path d="M35.2256 29.3549H48.6449V33.5484H35.2256V29.3549Z" fill="#41B7E9"/>
<path d="M3.35498 15.0968H16.7743V19.2904H3.35498V15.0968Z" fill="#41B7E9"/>
<path d="M13.4194 30.1936H28.5162V34.3872H13.4194V30.1936Z" fill="#41B7E9"/>
<path d="M42.7741 21.8065C37.6874 21.8065 33.5483 17.6674 33.5483 12.5807C33.5483 7.49389 37.6874 3.35486 42.7741 3.35486C47.8609 3.35486 52 7.49389 52 12.5807C52 17.6674 47.8609 21.8065 42.7741 21.8065Z" fill="#41B7E9"/>
<path d="M25.1611 3.35486H30.1934V5.03228H25.1611V3.35486Z" fill="#1F2428"/>
<path d="M21.8066 3.35486H23.4841V5.03228H21.8066V3.35486Z" fill="#1F2428"/>
<path d="M16.7741 38.5807C15.849 38.5807 15.0967 39.333 15.0967 40.2581V41.9355C15.0967 42.8606 15.849 43.6129 16.7741 43.6129H17.2656C17.7135 43.6129 18.1345 43.4385 18.4515 43.1215L20.4762 41.0968L18.4515 39.0722C18.1345 38.7551 17.7135 38.5807 17.2656 38.5807H16.7741ZM17.2656 41.9355H16.7741V40.2581H17.2656L18.1043 41.0968L17.2656 41.9355Z" fill="#1F2428"/>
<path d="M25.1613 38.5807C24.2362 38.5807 23.4839 39.333 23.4839 40.2581V41.9355C23.4839 42.8606 24.2362 43.6129 25.1613 43.6129H26.8387C27.7638 43.6129 28.5161 42.8606 28.5161 41.9355V40.2581C28.5161 39.333 27.7638 38.5807 26.8387 38.5807H25.1613ZM25.1613 41.9355V40.2581H26.8387L26.8396 41.9355H25.1613Z" fill="#1F2428"/>
<path d="M35.226 43.6129C36.1511 43.6129 36.9034 42.8606 36.9034 41.9355V40.2581C36.9034 39.333 36.1511 38.5807 35.226 38.5807H34.7345C34.2866 38.5807 33.8656 38.7551 33.5486 39.0722L31.5239 41.0968L33.5486 43.1215C33.8656 43.4385 34.2866 43.6129 34.7345 43.6129H35.226ZM34.7345 40.2581H35.226L35.2268 41.9355H34.7345L33.8958 41.0968L34.7345 40.2581Z" fill="#1F2428"/>
<path d="M42.7743 18.4516C44.6245 18.4516 46.1291 16.9469 46.1291 15.0967V13.4193H39.4194V15.0967C39.4194 16.9469 40.9241 18.4516 42.7743 18.4516ZM44.4517 15.0967C44.4517 16.0218 43.6994 16.7742 42.7743 16.7742C41.8492 16.7742 41.0969 16.0218 41.0969 15.0967H44.4517Z" fill="#1F2428"/>
<path d="M46.1289 10.9032C46.5911 10.9032 46.9676 11.279 46.9676 11.742H48.6451C48.6451 10.3547 47.5161 9.22583 46.1289 9.22583C44.7417 9.22583 43.6128 10.3547 43.6128 11.742H45.2902C45.2902 11.279 45.6668 10.9032 46.1289 10.9032Z" fill="#1F2428"/>
<path d="M40.2582 11.742H41.9356C41.9356 10.3547 40.8067 9.22583 39.4194 9.22583C38.0322 9.22583 36.9033 10.3547 36.9033 11.742H38.5807C38.5807 11.279 38.9573 10.9032 39.4194 10.9032C39.8816 10.9032 40.2582 11.279 40.2582 11.742Z" fill="#1F2428"/>
<path d="M46.9678 31.871H48.6452V33.5484H46.9678V31.871Z" fill="#1F2428"/>
<path d="M35.2256 31.871H45.2901V33.5484H35.2256V31.871Z" fill="#1F2428"/>
<path d="M35.2256 28.5161H48.6449V30.1935H35.2256V28.5161Z" fill="#1F2428"/>
<path d="M49.4839 25.1613H43.836L41.9355 24.0752V21.7637C41.3585 21.7117 40.799 21.6026 40.2581 21.4483V23.1165L38.4641 22.0916C38.1386 21.9046 37.7663 21.8065 37.3897 21.8065C36.1962 21.8065 35.2258 22.7768 35.2258 23.9703V25.1613H34.3871C32.9999 25.1613 31.871 26.2902 31.871 27.6774V34.3871C31.871 35.7743 32.9999 36.9032 34.3871 36.9032H40.2581V42.7742C40.2581 44.1614 39.1292 45.2903 37.7419 45.2903H14.2581C12.8708 45.2903 11.7419 44.1614 11.7419 42.7742V25.5286L13.5359 26.5535C13.8614 26.7406 14.2337 26.8387 14.6103 26.8387C15.8038 26.8387 16.7742 25.8683 16.7742 24.6748V23.4839H17.6129C19.0001 23.4839 20.129 22.355 20.129 20.9677V14.2581C20.129 12.8708 19.0001 11.7419 17.6129 11.7419H11.7419V8.3871H34.5666C34.8735 7.78826 35.2375 7.22381 35.6628 6.70968H11.7419V4.19355C11.7419 2.80632 12.8708 1.67742 14.2581 1.67742H37.7419C38.969 1.67742 39.9897 2.56142 40.2103 3.72471C40.7412 3.57039 41.2897 3.458 41.855 3.40181C41.4834 1.4669 39.7825 0 37.7419 0H14.2581C11.9457 0 10.0645 1.88123 10.0645 4.19355V11.7419H2.51613C1.1289 11.7419 0 12.8708 0 14.2581V20.9677C0 22.355 1.1289 23.4839 2.51613 23.4839H8.164L10.0645 24.57V47.8065C10.0645 50.1188 11.9457 52 14.2581 52H37.7419C40.0543 52 41.9355 50.1188 41.9355 47.8065V36.9032H49.4839C50.8711 36.9032 52 35.7743 52 34.3871V27.6774C52 26.2902 50.8711 25.1613 49.4839 25.1613ZM8.61019 21.8065H2.51613C2.054 21.8065 1.67742 21.4307 1.67742 20.9677V14.2581C1.67742 13.7951 2.054 13.4194 2.51613 13.4194H17.6129C18.075 13.4194 18.4516 13.7951 18.4516 14.2581V20.9677C18.4516 21.4307 18.075 21.8065 17.6129 21.8065H15.0968V24.6748C15.0968 25.0279 14.6741 25.2712 14.3688 25.0975L8.61019 21.8065ZM40.2581 47.8065C40.2581 49.1937 39.1292 50.3226 37.7419 50.3226H14.2581C12.8708 50.3226 11.7419 49.1937 11.7419 47.8065V46.1072C12.4448 46.6398 13.3103 46.9677 14.2581 46.9677H37.7419C38.6897 46.9677 39.5552 46.6398 40.2581 46.1072V47.8065ZM50.3226 34.3871C50.3226 34.8501 49.946 35.2258 49.4839 35.2258H34.3871C33.925 35.2258 33.5484 34.8501 33.5484 34.3871V27.6774C33.5484 27.2145 33.925 26.8387 34.3871 26.8387H36.9032V23.9703C36.9032 23.6172 37.3251 23.374 37.6312 23.5476L43.3898 26.8387H49.4839C49.946 26.8387 50.3226 27.2145 50.3226 27.6774V34.3871Z" fill="#1F2428"/>
<path d="M13.4194 30.1936H25.1614V31.871H13.4194V30.1936Z" fill="#1F2428"/>
<path d="M26.8389 30.1936H28.5163V31.871H26.8389V30.1936Z" fill="#1F2428"/>
<path d="M13.4194 33.5483H28.5162V35.2258H13.4194V33.5483Z" fill="#1F2428"/>
<path d="M3.35498 15.0968H5.0324V16.7742H3.35498V15.0968Z" fill="#1F2428"/>
<path d="M6.70947 15.0968H16.774V16.7742H6.70947V15.0968Z" fill="#1F2428"/>
<path d="M3.35498 18.4517H16.7743V20.1291H3.35498V18.4517Z" fill="#1F2428"/>
</svg>
